<svg width="24" height="24" viewBox="0 0 24 24" fill="none" xmlns="http://www.w3.org/2000/svg">
<g clip-path="url(#clip0_207_167)">
<path d="M15.4044 4.63531e-05C15.2198 0.00743097 15.0416 0.0406617 14.8561 0.0868156L2.30779 3.14405C0.823478 3.50774 -0.105138 5.00497 0.259478 6.4902L2.01886 13.6736C2.12548 14.1015 2.33306 14.4976 2.62423 14.8287C2.9154 15.1599 3.28168 15.4165 3.6924 15.577V13.8462C3.6924 11.3013 5.76286 9.23082 8.30779 9.23082H19.933L18.2022 2.10558C18.0492 1.48622 17.6872 0.938585 17.1774 0.55503C16.6675 0.171474 16.041 -0.0245374 15.4035 4.63531e-05H15.4044ZM16.5287 3.98128L17.2792 7.12528L14.1638 7.87482L13.3847 4.75943L16.5287 3.98128ZM8.30779 11.077C6.77917 11.077 5.53855 12.3176 5.53855 13.8462V21.2308C5.53855 22.7594 6.77917 24 8.30779 24H21.2309C22.7595 24 24.0001 22.7594 24.0001 21.2308V13.8462C24.0001 12.3176 22.7595 11.077 21.2309 11.077H8.30779ZM8.30779 12.5484H21.2309C21.9426 12.5484 22.5287 13.1345 22.5287 13.8462V14.7693H7.00994V13.8462C7.00994 13.1345 7.59609 12.5484 8.30779 12.5484ZM7.00994 17.5385H22.5287V21.2308C22.5287 21.9425 21.9426 22.5287 21.2309 22.5287H8.30779C7.96417 22.5267 7.63519 22.3894 7.39221 22.1464C7.14924 21.9034 7.01188 21.5744 7.00994 21.2308V17.5385Z" fill="black"/>
</g>
<defs>
<clipPath id="clip0_207_167">
<rect width="24" height="24" fill="white"/>
</clipPath>
</defs>
</svg>
