<svg width="16" height="16" viewBox="0 0 16 16" fill="none" xmlns="http://www.w3.org/2000/svg">
<path d="M9.3333 8V13.2533C9.35997 13.4533 9.2933 13.6667 9.13997 13.8067C9.07829 13.8685 9.00503 13.9175 8.92438 13.951C8.84373 13.9844 8.75728 14.0016 8.66997 14.0016C8.58265 14.0016 8.4962 13.9844 8.41555 13.951C8.3349 13.9175 8.26164 13.8685 8.19997 13.8067L6.85997 12.4667C6.78726 12.3956 6.73197 12.3087 6.69843 12.2127C6.66489 12.1167 6.65401 12.0142 6.66663 11.9133V8H6.64663L2.80663 3.08C2.69837 2.94102 2.64952 2.76484 2.67076 2.58995C2.69199 2.41507 2.78159 2.2557 2.91997 2.14667C3.04663 2.05333 3.18663 2 3.3333 2H12.6666C12.8133 2 12.9533 2.05333 13.08 2.14667C13.2183 2.2557 13.3079 2.41507 13.3292 2.58995C13.3504 2.76484 13.3016 2.94102 13.1933 3.08L9.3533 8H9.3333Z" fill="#EC2028"/>
</svg>
