<svg width="113" height="112" viewBox="0 0 113 112" fill="none" xmlns="http://www.w3.org/2000/svg">
<path fill-rule="evenodd" clip-rule="evenodd" d="M36.7098 9.45148C72.4243 9.45148 102.615 33.0565 112.551 65.5197V112H0V18.4423C10.9814 12.7028 23.4724 9.45148 36.7098 9.45148Z" fill="#F9D4DB"/>
<path d="M37.3567 77.8614C41.6697 77.7287 56.1678 74.0959 58.9712 73.3826C59.2864 73.3163 59.5518 73.1338 59.7342 72.8684L60.4641 71.8233L63.3007 68.2403C63.6657 67.7758 64.1965 67.5104 64.7771 67.5104H69.4052C69.4052 67.5104 70.1019 67.2781 70.5332 68.8706L70.5498 68.9867C71.6778 68.937 72.8721 68.8872 73.9006 68.854C73.685 67.9085 70.1517 52.581 68.4928 48.3344C66.7677 43.9717 57.0635 40.7701 57.0635 40.7701V40.737C56.6986 40.7204 56.3171 40.6706 55.9355 40.6043L55.9189 40.7701C47.9566 44.5854 42.2171 36.6563 41.4042 35.4453C38.07 36.988 24.9985 43.3579 23.1738 48.9316C21.1002 55.1687 18.7281 68.2734 19.8561 79.6032C19.9059 80.0677 20.2045 80.4492 20.6358 80.5985C21.1002 80.781 21.7306 80.98 22.3278 81.0464C22.2282 80.4824 22.1287 79.8852 22.0458 79.2549V79.2383C26.0933 78.0107 37.3567 77.8614 37.3567 77.8614Z" fill="#EC2029"/>
<path d="M29.8588 90.7837L29.5437 112H74.5641C73.9338 105 73.038 95.9426 71.993 87.9637C71.5948 84.8285 71.1635 81.8426 70.7157 79.2217C70.7157 79.2217 66.7179 82.2076 60.7793 80.416C60.7793 80.416 40.0108 89.0917 29.8588 90.7837Z" fill="#EC2029"/>
<path d="M55.9355 40.6042C56.3171 40.6705 56.6986 40.7203 57.0635 40.7369C60.1489 40.8696 63.1182 39.4762 64.8434 36.623C69.3388 29.1583 69.9858 18.2101 69.9858 18.2101C70.0024 18.0608 70.0189 17.9115 70.0024 17.7622C69.9858 16.966 69.6706 16.2195 68.8578 16.0536C68.0284 15.8711 58.2911 10.7951 56.1678 16.2029C56.1678 16.2029 50.0633 20.7149 49.7979 20.9471C49.5491 21.196 48.4376 26.1061 48.4376 26.1061C48.4376 26.1061 48.0064 26.7032 47.7575 26.0563H46.3641C45.6674 26.1558 45.12 26.0895 44.6721 25.907C44.6721 25.907 44.4399 33.9523 42.1673 35.0969C42.1673 35.0969 41.8853 35.213 41.4042 35.4452C42.2171 36.6562 47.9566 44.5854 55.9189 40.7701L55.9355 40.6042Z" fill="white"/>
<path d="M42.9304 20.4495C42.7645 22.4401 42.8806 25.144 44.6721 25.907C45.12 26.0895 45.6674 26.1558 46.3641 26.0563H47.7575C47.5751 25.5089 47.5253 24.1321 48.0064 20.8476C48.1722 19.6864 47.8737 18.4921 47.1272 17.5963C46.53 16.883 45.6674 16.402 44.556 17.0655C43.7266 17.5465 43.1958 18.4257 43.0631 19.3878C43.0133 19.703 42.9635 20.0514 42.9304 20.4329C42.9304 20.4495 42.9304 20.4495 42.9304 20.4495Z" fill="white"/>
<path d="M70.0024 17.7623C70.0024 17.7623 74.7798 12.7858 72.0759 8.70508C69.7038 5.17178 69.2559 8.5226 69.1896 9.46813C69.2393 8.32355 69.372 3.51296 67.5307 3.34707C65.424 3.18119 66.27 5.66943 66.27 5.66943C66.27 5.66943 56.0517 -3.96834 50.9923 2.3186C50.9923 2.3186 43.428 3.24755 42.6981 10.1814C41.9683 16.9163 42.8806 20.2505 42.9304 20.433C42.9635 20.0514 43.0133 19.7031 43.0631 19.3879C43.1958 18.4258 43.7266 17.5466 44.556 17.0655C45.6674 16.402 46.53 16.8831 47.1272 17.5964C47.8737 18.4921 48.1723 19.6865 48.0064 20.8477C47.5253 24.1321 47.5751 25.509 47.7575 26.0564C48.0064 26.7033 48.4377 26.1061 48.4377 26.1061C48.4377 26.1061 49.5491 21.196 49.7979 20.9472C50.0633 20.715 56.1678 16.203 56.1678 16.203C58.2911 10.7952 68.0284 15.8712 68.8578 16.0537C69.6706 16.2195 69.9858 16.966 70.0024 17.7623Z" fill="black"/>
<path d="M71.628 78.1102L70.7157 79.2216C71.1636 81.8426 71.5948 84.8284 71.993 87.9636C76.2893 87.5655 80.1378 78.0604 80.2539 77.7619C79.7065 78.16 78.8107 78.6742 77.7159 78.7406C77.7159 78.7406 74.1826 78.359 73.2039 77.4799C73.1376 77.4964 73.0712 77.513 73.0048 77.5296L71.628 78.1102Z" fill="white"/>
<path d="M77.2348 72.7522C75.9741 72.7688 76.0571 74.1456 76.0571 74.1456C76.1068 74.3115 76.223 74.4442 76.3888 74.5769C77.7823 75.6054 82.5928 75.0912 82.5928 75.0912C84.1687 74.129 83.9531 72.0389 83.8536 71.4086L83.0739 71.4252C82.5265 71.674 81.9293 71.7901 81.299 71.8233V71.8399C81.1331 72.1219 80.2705 72.52 80.2705 72.52C80.1378 72.7356 78.4956 72.7522 77.2348 72.7522Z" fill="white"/>
<path d="M74.4646 66.7804C74.4646 66.7804 73.7679 67.9582 73.9172 68.8539C74.2987 68.8374 74.6471 68.8208 74.9623 68.8042L78.2633 65.8681L78.1804 65.7685C78.1804 65.7685 75.9907 64.1761 74.4646 66.7804Z" fill="white"/>
<path d="M80.8843 77.2311C80.8179 77.2477 78.761 76.9989 77.2348 76.4349C77.2348 76.4349 75.9244 76.6173 75.5428 76.5344C74.9623 76.833 74.0997 77.2477 73.2039 77.4799C74.1826 78.3591 77.7159 78.7406 77.7159 78.7406C78.8107 78.6743 79.7065 78.1601 80.2539 77.7619C80.2705 77.7619 80.2705 77.7619 80.2705 77.7619C80.6686 77.4633 80.8843 77.2311 80.8843 77.2311Z" fill="white"/>
<path d="M76.422 74.9419L75.5926 75.0083C75.576 75.6054 76.3059 76.0699 77.2348 76.4348C78.761 76.9988 80.8179 77.2477 80.8842 77.2311C82.626 76.2524 82.5928 75.0912 82.5928 75.0912C82.5928 75.0912 77.7822 75.6054 76.3888 74.577L76.422 74.9419Z" fill="white"/>
<path d="M70.5498 68.9867L70.5332 68.8706C70.1019 67.2781 69.4052 67.5103 69.4052 67.5103H64.7771C64.1965 67.5103 63.6657 67.7757 63.3007 68.2402L60.4641 71.8233L59.7343 72.8683C59.5518 73.1337 59.2864 73.3162 58.9712 73.3826C56.1678 74.0958 41.6697 77.7287 37.3567 77.8614C37.3567 77.8614 26.0933 78.0107 22.0458 79.2382V79.2548C22.1287 79.8851 22.2282 80.4823 22.3278 81.0463C23.1738 85.9564 24.4842 88.0963 25.4298 89.7386C25.9108 90.6011 26.8066 91.0988 27.7521 91.049C28.3825 90.9993 29.0958 90.9163 29.8588 90.7836C40.0108 89.0916 60.7793 80.416 60.7793 80.416C66.7179 82.2075 70.7157 79.2216 70.7157 79.2216L71.628 78.1102L73.0049 77.5296C73.0712 77.513 73.1376 77.4964 73.2039 77.4798C74.0997 77.2476 74.9623 76.8329 75.5429 76.5343C75.9244 76.6173 77.2349 76.4348 77.2349 76.4348C76.3059 76.0698 75.576 75.6054 75.5926 75.0082L76.422 74.9418L76.3889 74.5769C76.223 74.4442 76.1069 74.3115 76.0571 74.1456C76.0571 74.1456 75.9741 72.7688 77.2349 72.7522C78.4956 72.7522 80.1378 72.7356 80.2705 72.52C80.2705 72.52 81.1331 72.1218 81.299 71.8398V71.8233C79.4079 71.9228 77.4671 71.2261 77.4671 71.2261L79.4245 70.463C79.4245 70.463 81.6307 69.9322 81.5976 68.9037C81.5976 68.8374 81.5976 68.771 81.5644 68.7047C81.216 67.5269 77.55 68.6217 76.8201 68.7047C76.6377 68.7213 75.941 68.7544 74.9623 68.8042C74.6471 68.8208 74.2987 68.8374 73.9172 68.854C73.9172 68.8706 73.9172 68.8871 73.9172 68.9037C73.9172 68.9037 73.9172 68.8871 73.9006 68.854C72.8721 68.8871 71.6778 68.9369 70.5498 68.9867Z" fill="white"/>
<path d="M81.5975 68.9038L83.0739 67.9251L85.5124 66.3326C86.1593 65.9013 85.8939 64.8728 85.1308 64.8397L80.1378 64.5908C79.8724 64.5743 79.5904 64.6738 79.3913 64.8563L78.2633 65.8681L74.9622 68.8043C75.941 68.7545 76.6377 68.7213 76.8201 68.7047C77.55 68.6218 81.216 67.527 81.5644 68.7047C81.5975 68.7711 81.5975 68.8374 81.5975 68.9038Z" fill="white"/>
<path d="M83.0739 67.925L81.5976 68.9038C81.6307 69.9322 79.4245 70.463 79.4245 70.463L77.4671 71.2261C77.4671 71.2261 79.4079 71.9228 81.299 71.8233C81.9293 71.7901 82.5265 71.674 83.0739 71.4252L83.8536 71.4086C83.837 71.2925 83.8038 71.2261 83.8038 71.2261C84.2848 69.7332 83.1237 67.9914 83.1237 67.9914L83.0739 67.925Z" fill="white"/>
<path d="M44.6721 25.907C44.6721 25.907 44.4399 33.9523 42.1673 35.0969C42.1673 35.0969 41.8853 35.213 41.4042 35.4453C38.07 36.988 24.9985 43.3579 23.1738 48.9315C21.1002 55.1687 18.7281 68.2734 19.8561 79.6032C19.9059 80.0676 20.2045 80.4492 20.6358 80.5985C21.1002 80.7809 21.7306 80.98 22.3278 81.0464C22.3775 81.0629 22.4273 81.0629 22.4771 81.0629" stroke="#231F1F" stroke-width="0.0790944"/>
<path d="M21.3159 79.5202C21.5315 79.4207 21.7638 79.3212 22.0458 79.2382C26.0933 78.0107 37.3567 77.8614 37.3567 77.8614C41.6697 77.7287 56.1678 74.0959 58.9712 73.3826C59.2864 73.3162 59.5518 73.1338 59.7343 72.8683" stroke="#231F1F" stroke-width="0.0790944"/>
<path d="M59.7343 72.8684L60.4641 71.8233L63.3007 68.2402" stroke="#231F1F" stroke-width="0.0790944"/>
<path d="M63.3007 68.2402C63.6657 67.7757 64.1965 67.5103 64.7771 67.5103" stroke="#231F1F" stroke-width="0.0790944"/>
<path d="M64.7771 67.5103H69.4052" stroke="#231F1F" stroke-width="0.0790944"/>
<path d="M69.4052 67.5103C69.4052 67.5103 70.1019 67.2781 70.5332 68.8706" stroke="#231F1F" stroke-width="0.0790944"/>
<path d="M36.3448 51.2207C36.3448 51.2207 37.4728 75.9206 37.3567 77.8614" stroke="#231F1F" stroke-width="0.0790944"/>
<path d="M57.0636 40.7701C57.0636 40.7701 66.7677 43.9717 68.4928 48.3344C70.1517 52.581 73.685 67.9085 73.9006 68.854C73.9172 68.8872 73.9172 68.9038 73.9172 68.9038" stroke="#231F1F" stroke-width="0.0790944"/>
<path d="M41.3047 35.296C41.3047 35.296 41.3379 35.3458 41.4042 35.4453C42.2171 36.6563 47.9566 44.5854 55.919 40.7701" stroke="#231F1F" stroke-width="0.0790944"/>
<path d="M29.8588 90.7836L29.5437 112" stroke="#231F1F" stroke-width="0.0790944"/>
<path d="M78.1804 65.7685C78.1804 65.7685 75.9907 64.1761 74.4646 66.7804C74.4646 66.7804 73.7679 67.9582 73.9172 68.8539C73.9172 68.8705 73.9172 68.8871 73.9172 68.9037" stroke="#231F1F" stroke-width="0.0790944"/>
<path d="M66.27 69.0863C66.3198 69.1194 68.2938 69.0697 70.5498 68.9867C71.6778 68.937 72.8721 68.8872 73.9006 68.854C73.9172 68.8374 73.9172 68.854 73.9172 68.854C74.2987 68.8374 74.6471 68.8208 74.9623 68.8043C75.941 68.7545 76.6377 68.7213 76.8201 68.7047C77.55 68.6218 81.216 67.527 81.5644 68.7047C81.5976 68.7711 81.5976 68.8374 81.5976 68.9038C81.6307 69.9323 79.4245 70.4631 79.4245 70.4631" stroke="#231F1F" stroke-width="0.0790944"/>
<path d="M79.4245 70.463L77.4671 71.2261L75.6755 71.9228L72.2418 72.2214" stroke="#231F1F" stroke-width="0.0790944"/>
<path d="M76.5381 74.9253L76.422 74.9419L75.5926 75.0082L72.3413 75.2736" stroke="#231F1F" stroke-width="0.0790944"/>
<path d="M76.223 76.1694C76.223 76.1694 75.9575 76.3187 75.5428 76.5343C74.9622 76.8329 74.0997 77.2476 73.2039 77.4798C73.1375 77.4964 73.0712 77.513 73.0048 77.5296" stroke="#231F1F" stroke-width="0.0790944"/>
<path d="M73.0048 77.5297L71.628 78.1103L70.7157 79.2217" stroke="#231F1F" stroke-width="0.0790944"/>
<path d="M70.7157 79.2217C70.7157 79.2217 66.7179 82.2076 60.7793 80.416C60.7793 80.416 40.0108 89.0917 29.8588 90.7837C29.0958 90.9164 28.3825 90.9993 27.7521 91.0491C26.8066 91.0989 25.9108 90.6012 25.4298 89.7386C24.4842 88.0964 23.1738 85.9565 22.3278 81.0464C22.2282 80.4824 22.1287 79.8852 22.0458 79.2549" stroke="#231F1F" stroke-width="0.0790944"/>
<path d="M80.2539 77.7618C79.7065 78.1599 78.8107 78.6742 77.7159 78.7405C77.7159 78.7405 74.1826 78.359 73.2039 77.4798C73.1873 77.4632 73.1873 77.4632 73.1707 77.4467" stroke="#231F1F" stroke-width="0.0790944"/>
<path d="M83.1237 67.9914C83.1237 67.9914 84.2848 69.7332 83.8038 71.2261C83.8038 71.2261 83.837 71.2925 83.8536 71.4086C83.9531 72.0389 84.1687 74.129 82.5928 75.0912C82.5928 75.0912 82.626 76.2523 80.8843 77.231C80.8843 77.231 80.6686 77.4633 80.2705 77.7619" stroke="#231F1F" stroke-width="0.0790944"/>
<path d="M77.4671 71.2261C77.4671 71.2261 79.4079 71.9228 81.299 71.8233C81.9293 71.7901 82.5265 71.674 83.0739 71.4251" stroke="#231F1F" stroke-width="0.0790944"/>
<path d="M82.5928 75.0912C82.5928 75.0912 77.7823 75.6054 76.3888 74.577C76.223 74.4443 76.1068 74.3116 76.0571 74.1457C76.0571 74.1457 75.9741 72.7688 77.2348 72.7523C78.4956 72.7523 80.1378 72.7357 80.2705 72.52C80.2705 72.52 81.1331 72.1219 81.299 71.8399" stroke="#231F1F" stroke-width="0.0790944"/>
<path d="M80.8842 77.231C80.8179 77.2476 78.761 76.9988 77.2348 76.4348C76.3059 76.0698 75.576 75.6054 75.5926 75.0082" stroke="#231F1F" stroke-width="0.0790944"/>
<path d="M77.2348 76.4349C77.2348 76.4349 75.9244 76.6173 75.5428 76.5344C75.5263 76.5344 75.4931 76.5344 75.4765 76.5178" stroke="#231F1F" stroke-width="0.0790944"/>
<path d="M80.2705 77.7619C80.2705 77.7619 80.2705 77.7619 80.2539 77.7619C80.1378 78.0605 76.2893 87.5656 71.993 87.9637" stroke="#231F1F" stroke-width="0.0790944"/>
<path d="M42.9304 20.4329C42.9635 20.0514 43.0133 19.703 43.0631 19.3878C43.1958 18.4257 43.7266 17.5465 44.556 17.0655C45.6674 16.402 46.53 16.883 47.1272 17.5963C47.8737 18.4921 48.1722 19.6864 48.0064 20.8476C47.5253 24.1321 47.5751 25.5089 47.7575 26.0563C48.0064 26.7032 48.4377 26.1061 48.4377 26.1061C48.4377 26.1061 49.5491 21.196 49.7979 20.9471C50.0633 20.7149 56.1678 16.2029 56.1678 16.2029C58.2911 10.7951 68.0284 15.8711 68.8578 16.0536C69.6706 16.2195 69.9858 16.966 70.0024 17.7622C70.019 17.9115 70.0024 18.0608 69.9858 18.2101C69.9858 18.2101 69.3388 29.1583 64.8434 36.623C63.1182 39.4762 60.149 40.8696 57.0635 40.7369C56.6986 40.7203 56.3171 40.6705 55.9355 40.6042C55.0066 40.4549 54.0777 40.1563 53.1819 39.7084C51.2577 38.7629 49.1012 36.2083 47.8073 33.4878" stroke="#231F1F" stroke-width="0.0790944"/>
<path d="M46.3641 26.0563C45.6674 26.1559 45.12 26.0895 44.6721 25.9071C42.8806 25.144 42.7645 22.4401 42.9304 20.4495" stroke="#231F1F" stroke-width="0.0790944"/>
<path d="M69.173 9.70037C69.173 9.70037 69.173 9.61743 69.1896 9.46813C69.2393 8.32355 69.372 3.51296 67.5307 3.34707C65.424 3.18119 66.27 5.66943 66.27 5.66943C66.27 5.66943 56.0517 -3.96834 50.9923 2.3186C50.9923 2.3186 43.428 3.24754 42.6981 10.1814C41.9683 16.9163 42.8806 20.2505 42.9304 20.433C42.9304 20.4495 42.9304 20.4495 42.9304 20.4495" stroke="#231F1F" stroke-width="0.0790944"/>
<path d="M70.0024 17.7622C70.0024 17.7622 74.7798 12.7857 72.0759 8.70501C69.7038 5.17171 69.2559 8.52254 69.1895 9.46807" stroke="#231F1F" stroke-width="0.0790944"/>
<path d="M74.9622 68.8043L78.2633 65.8681L79.3913 64.8563" stroke="#231F1F" stroke-width="0.0790944"/>
<path d="M79.3913 64.8563C79.5904 64.6738 79.8724 64.5743 80.1378 64.5908" stroke="#231F1F" stroke-width="0.0790944"/>
<path d="M80.1378 64.5908L85.1308 64.8396" stroke="#231F1F" stroke-width="0.0790944"/>
<path d="M85.1308 64.8396C85.8939 64.8728 86.1593 65.9012 85.5124 66.3325" stroke="#231F1F" stroke-width="0.0790944"/>
<path d="M85.5124 66.3326L83.0739 67.9251L81.5975 68.9038" stroke="#231F1F" stroke-width="0.0790944"/>
<path d="M84.8654 65.9842L80.3866 65.8184" stroke="#231F1F" stroke-width="0.0790944"/>
<path d="M80.3866 65.8184C80.1876 65.8184 79.9719 65.8847 79.8226 66.0008" stroke="#231F1F" stroke-width="0.0790944"/>
<path d="M79.8226 66.0008L77.2348 67.9914" stroke="#231F1F" stroke-width="0.0790944"/>
<path d="M69.4052 67.5104L66.7179 54.1735" stroke="#231F1F" stroke-width="0.0790944"/>
<path d="M44.1911 26.1061C44.1413 27.4996 44.0086 28.893 43.7929 30.2698C43.5607 31.6798 43.2787 34.1846 41.8521 34.9809C41.0559 35.4287 40.1767 35.7605 39.3473 36.1586C37.5724 37.0378 35.7974 37.9667 34.0722 38.962C30.4062 41.0687 26.3587 43.4906 23.8207 46.941C22.6429 48.5334 22.2116 50.4909 21.7306 52.3653C21.0007 55.2849 20.4367 58.2376 20.022 61.2069C19.4746 65.0056 19.1428 68.854 19.0931 72.6859C19.0599 74.7263 19.1262 76.7666 19.2921 78.7904C19.3419 79.4705 19.3087 80.2336 19.8064 80.7644C20.3372 81.3118 21.3325 81.544 22.0458 81.6436C22.5268 81.7099 22.7425 80.98 22.2614 80.8971C21.8301 80.8473 21.432 80.7312 21.0173 80.5819C20.3704 80.3331 20.1879 80.0511 20.1049 79.371C20.022 78.4918 19.9722 77.6126 19.9225 76.7169C19.8561 74.9751 19.8395 73.2333 19.8893 71.4916C19.9888 68.0246 20.304 64.5743 20.8016 61.1405C21.2164 58.2542 21.7638 55.3844 22.4771 52.5644C22.9581 50.6567 23.406 48.6993 24.6501 47.1069C27.3042 43.7394 31.3518 41.3673 35.0509 39.2938C36.6766 38.3814 38.3354 37.5023 40.0274 36.6894C40.7573 36.3245 41.5369 36.0259 42.2502 35.6444C43.8261 34.7818 44.2077 32.3101 44.4897 30.7343C44.7551 29.2081 44.9209 27.6489 44.9541 26.1061C44.9707 25.6085 44.2077 25.6085 44.1911 26.1061Z" fill="#1D1819"/>
<path d="M21.4154 80.051C23.0079 79.3377 24.9653 79.205 26.6739 79.0391C28.8635 78.8069 31.0532 78.6742 33.2594 78.5747C35.9633 78.4585 38.5511 78.4088 41.2218 77.9609C45.7835 77.1647 50.3121 76.0864 54.8241 74.9916C55.6867 74.7925 56.5493 74.5769 57.4119 74.3612C57.9925 74.212 58.6394 74.129 59.2034 73.8968C59.9001 73.5816 60.2485 72.8185 60.6964 72.238C60.6134 72.3375 60.912 71.9394 60.9784 71.873C61.2438 71.5247 61.5258 71.1763 61.7912 70.8445C62.3386 70.1478 62.8528 69.4345 63.4334 68.771C64.097 68.0245 64.8102 68.1075 65.706 68.1075C66.7013 68.1075 67.7132 68.1075 68.7251 68.1075C69.5877 68.1075 69.737 68.1241 70.0687 69.1857C70.2014 69.6502 70.9479 69.4511 70.8152 68.9701C70.583 68.2236 70.2512 67.3942 69.372 67.3278C69.1232 67.2947 69.3554 67.3444 69.0237 67.3278C68.6255 67.3278 68.2274 67.3278 67.8127 67.3278C66.2866 67.3278 64.0472 66.8965 62.9192 68.1738C61.9405 69.2852 61.0447 70.5128 60.149 71.6905C59.7177 72.2545 59.4025 72.9844 58.7058 73.2332C58.1252 73.4489 57.4782 73.5484 56.8811 73.6977C52.3857 74.8091 47.8737 75.8874 43.3285 76.7831C41.4374 77.1481 39.5132 77.5628 37.5724 77.6623C36.5439 77.7287 35.4988 77.7121 34.4538 77.7618C31.9821 77.8448 29.5105 77.9775 27.0554 78.2263C25.0648 78.4254 22.8752 78.5581 21.0339 79.3875C20.5694 79.5865 20.9675 80.2501 21.4154 80.051Z" fill="#1D1819"/>
<path d="M35.8638 51.4197C36.2121 58.9508 36.5605 66.4653 36.7927 73.9963C36.8425 75.34 36.9586 76.7168 36.8756 78.0605C36.8425 78.5581 37.6221 78.5581 37.6553 78.0605C37.7051 76.949 37.6221 75.821 37.5889 74.7096C37.5226 72.5532 37.4396 70.4133 37.3567 68.2734C37.1742 63.6785 36.9752 59.1001 36.7761 54.5052C36.7263 53.4767 36.6766 52.4482 36.6434 51.4197C36.6102 50.9221 35.8472 50.9221 35.8638 51.4197Z" fill="#1D1819"/>
<path d="M56.8645 41.3507C58.6062 41.9147 60.2982 42.6612 61.9239 43.4906C64.2628 44.7015 67.116 46.294 68.1113 48.8817C68.9739 51.1377 69.5545 53.5265 70.1682 55.8654C70.9147 58.6688 71.6114 61.5054 72.2915 64.342C72.6897 65.951 73.0712 67.5767 73.4527 69.2023C73.5688 69.6834 74.2987 69.4843 74.1992 69.0033C73.2039 64.6572 72.1422 60.3276 71.0142 56.0313C70.3673 53.5928 69.7535 51.1046 68.8744 48.7324C67.9122 46.1779 65.4572 44.5522 63.168 43.2915C61.2272 42.2133 59.1702 41.3009 57.0635 40.6042C56.5991 40.4383 56.3834 41.1848 56.8645 41.3507Z" fill="#1D1819"/>
<path d="M40.973 35.8433C43.0299 39.1278 46.6793 41.981 50.6107 42.3625C52.4852 42.545 54.3265 42.0971 56.0019 41.3009C56.4664 41.1018 56.0683 40.4383 55.6204 40.6373C52.1368 42.2796 48.4543 41.699 45.4186 39.443C43.9588 38.3647 42.5986 36.9879 41.6365 35.4452C41.3711 35.0305 40.7076 35.412 40.973 35.8433Z" fill="#1D1819"/>
<path d="M29.3778 90.9827C29.328 95.2458 29.2617 99.5256 29.1953 103.789L29.0626 112H29.8422L30.0911 95.6606C30.1077 94.1013 30.1408 92.542 30.1574 90.9827C30.1574 90.485 29.3944 90.485 29.3778 90.9827ZM74.8627 112C74.2324 105.083 73.5191 98.1488 72.6731 91.2481C72.192 87.2669 71.6612 83.2857 70.9977 79.3211C70.9147 78.8401 70.1682 79.0391 70.2512 79.5368C72.0593 90.2694 73.1541 101.151 74.0831 112H74.8627Z" fill="#1D1819"/>
<path d="M78.2633 65.6359C77.7823 65.2709 77.0855 65.0885 76.4884 65.105C75.3106 65.1548 74.3982 66.0174 73.9006 67.0293C73.5688 67.6928 73.32 68.4559 73.4527 69.2023C73.4859 69.418 73.7347 69.5175 73.9172 69.4677C74.1328 69.418 74.2324 69.2023 74.1992 69.0033C74.0997 68.5056 74.3319 67.925 74.531 67.4937C74.73 67.079 74.9788 66.6975 75.3106 66.3823C75.4931 66.233 75.7087 66.0837 75.9078 66.0008C76.0902 65.9345 76.2893 65.8847 76.4552 65.8847C76.5381 65.8681 76.6377 65.8681 76.7372 65.8847C76.7538 65.8847 76.8699 65.9013 76.8533 65.8847C76.8201 65.8847 76.9528 65.9179 76.9694 65.9179C77.1353 65.951 77.2846 66.0008 77.4505 66.0672C77.4837 66.0837 77.4173 66.0506 77.4173 66.0506C77.4505 66.0672 77.4671 66.0672 77.5003 66.0837C77.5168 66.1003 77.55 66.1169 77.5832 66.1335C77.633 66.1501 77.6827 66.1833 77.7491 66.2165C77.7823 66.233 77.832 66.2662 77.8818 66.2994C78.0477 66.4155 78.3131 66.3326 78.4126 66.1667C78.5287 65.9676 78.4458 65.752 78.2633 65.6359Z" fill="#1D1819"/>
<path d="M66.071 69.6502C66.4359 69.7995 67.0497 69.6834 67.4312 69.6668C68.4265 69.6502 69.4218 69.617 70.4171 69.5673C72.3745 69.5009 74.3319 69.4346 76.2893 69.3184C76.9362 69.2853 77.5666 69.1194 78.197 69.0033C78.5951 68.9203 81.3819 68.3231 81.0833 69.2853C80.8842 69.9156 79.7397 70.1313 79.1922 70.3137C78.4126 70.5791 77.633 70.9109 76.8533 71.2095C76.4386 71.3754 76.0073 71.5578 75.576 71.7071C75.377 71.7901 75.6424 71.7237 75.4931 71.7403C75.3272 71.7735 75.1447 71.7735 74.9788 71.7901C74.0333 71.873 73.0878 71.956 72.1422 72.0389C71.6446 72.0721 71.6446 72.8517 72.1422 72.802C73.0712 72.719 74.0001 72.6527 74.9125 72.5697C75.576 72.52 76.0405 72.3541 76.6708 72.1053C77.5832 71.7569 78.479 71.3588 79.4079 71.0602C80.1212 70.8114 80.9174 70.6123 81.4648 70.0317C82.1615 69.335 81.9293 68.3066 80.9672 68.0577C79.8392 67.7591 78.5121 68.1407 77.4173 68.3729C75.7585 68.7213 74.0001 68.6549 72.3081 68.7213C70.9645 68.7876 69.6042 68.8374 68.2606 68.8706C67.7795 68.8871 67.3151 68.9037 66.8506 68.9037C66.7013 68.9037 66.5354 68.9203 66.3861 68.9037C66.3032 68.9037 66.1539 68.8706 66.27 68.9037C65.8221 68.7213 65.6231 69.4677 66.071 69.6502Z" fill="#1D1819"/>
<path d="M76.4386 74.7428C75.2277 74.8423 74.0001 74.9418 72.7726 75.0414C72.6067 75.058 72.4243 75.0746 72.2418 75.0746C72.0427 75.0911 71.8603 75.2404 71.8603 75.4727C71.8603 75.6717 72.0427 75.8708 72.2418 75.8542C73.4693 75.7547 74.6968 75.6551 75.9078 75.5556C76.0903 75.539 76.2727 75.5224 76.4386 75.5059C76.6543 75.4893 76.8367 75.3566 76.8367 75.1243C76.8367 74.9253 76.6543 74.7262 76.4386 74.7428Z" fill="#1D1819"/>
<path d="M75.941 76.0367C74.8959 76.6671 73.7679 76.9988 72.6399 77.4301C71.8934 77.7121 71.3626 77.9112 70.8484 78.525C70.4171 79.0558 70.4171 79.1387 69.8033 79.4871C68.891 79.9847 67.9123 80.3331 66.9004 80.5487C65.2416 80.9137 63.4998 80.8805 61.841 80.5155C61.277 80.3994 60.8623 80.1506 60.3314 80.3497C59.303 80.7312 58.3077 81.1791 57.2958 81.5772C53.1487 83.236 48.9851 84.8285 44.7717 86.2882C40.2099 87.8807 35.5818 89.4566 30.8375 90.4021C29.8588 90.6012 28.847 90.7837 27.8351 90.85C26.226 90.9495 25.5791 89.6722 24.9321 88.4613C23.4392 85.6413 22.7425 82.4895 22.3112 79.3544C22.2448 78.8567 21.4984 79.0724 21.5647 79.5534C21.9794 82.5227 22.6264 85.492 23.9368 88.2125C24.335 89.0087 24.7497 89.9377 25.3302 90.6178C26.1762 91.6131 27.3208 91.696 28.5152 91.5467C33.1433 91.0159 37.6719 89.4898 42.0678 88.03C46.7457 86.4707 51.3738 84.7455 55.9687 82.9374C57.329 82.4066 58.6726 81.8592 60.0328 81.2952C60.2319 81.2122 60.5471 81.0132 60.7627 80.9966C60.8125 80.9966 60.9784 81.0961 61.0281 81.1127C61.4594 81.2454 61.9073 81.3284 62.3552 81.3947C63.2676 81.544 64.1799 81.6104 65.1089 81.5606C66.9336 81.4611 69.3554 80.9966 70.8152 79.7691C71.1304 79.4871 71.429 79.089 71.6778 78.7406C71.8271 78.5084 71.5119 78.724 71.91 78.5747C72.1423 78.4752 72.3745 78.3757 72.6067 78.2761C73.8674 77.7453 75.1447 77.4135 76.3225 76.7002C76.7538 76.4348 76.3557 75.7713 75.941 76.0367Z" fill="#1D1819"/>
<path d="M82.6924 68.3895C82.991 68.854 83.2066 69.3682 83.3393 69.8991C83.4554 70.3635 83.4388 70.7782 83.3559 71.2593C83.3393 71.4252 83.3393 71.5247 83.3725 71.6906C83.4388 72.1551 83.472 72.6361 83.4057 73.1006C83.3559 73.4489 83.2564 73.7973 83.1071 74.0959C82.8914 74.494 82.626 74.6931 82.2943 74.9585C82.0288 75.2073 82.0952 75.5722 81.9127 75.8874C81.5644 76.5178 80.9672 76.7998 80.4364 77.2311C79.5572 77.9775 78.4624 78.6742 77.268 78.5084C76.5879 78.4254 75.9244 78.3093 75.2608 78.1434C74.6305 77.9941 73.8342 77.8282 73.3366 77.3804C72.9717 77.032 72.4242 77.5794 72.7892 77.9278C73.5854 78.6576 74.8461 78.8733 75.8746 79.0724C76.8035 79.2382 77.6661 79.4207 78.5951 79.1553C79.6899 78.8567 80.4695 78.1434 81.3819 77.5131C82.0786 77.0486 82.8914 76.2192 82.8748 75.2902C82.8251 75.4064 82.7587 75.5225 82.6924 75.6386C84.036 74.776 84.3678 73.1504 84.1355 71.6574C84.1355 71.5911 84.1024 71.4915 84.1024 71.4252C84.1024 71.3256 84.1355 71.3422 84.119 71.392C84.2019 70.8778 84.2351 70.4133 84.1355 69.8991C84.0028 69.2355 83.7208 68.572 83.3559 68.008C83.0739 67.5933 82.4104 67.9748 82.6924 68.3895Z" fill="#1D1819"/>
<path d="M77.268 71.8067C77.9316 72.0389 78.6448 72.2048 79.3581 72.3043C80.6354 72.5034 81.9791 72.5034 83.1734 71.956C83.6213 71.7569 83.2232 71.0934 82.7753 71.2924C81.7303 71.7735 80.453 71.7071 79.3416 71.5247C78.7112 71.4251 78.0808 71.2759 77.4671 71.0602C77.0026 70.8943 76.8036 71.6408 77.268 71.8067Z" fill="#1D1819"/>
<path d="M82.4933 74.9087C81.0336 75.0746 79.5074 75.1409 78.0477 74.9419C77.633 74.8755 77.1685 74.7926 76.8036 74.6267C76.6543 74.5603 76.5216 74.4774 76.4386 74.411C76.3888 74.3447 76.3888 74.3447 76.3557 74.3115L76.3059 74.2286C76.505 74.1788 76.3059 74.4276 76.3391 74.3115C76.3723 74.212 76.3391 74.0959 76.3557 74.0295C76.4054 73.847 76.4552 73.6812 76.5879 73.5485C76.7704 73.366 77.0026 73.3494 77.2348 73.3494C77.633 73.3494 78.0477 73.3494 78.4624 73.3328C78.8439 73.3162 79.2254 73.3162 79.607 73.2665C79.8392 73.2333 80.1212 73.2167 80.3368 73.084C80.4198 73.0342 80.4032 73.001 80.4861 72.9347C80.2041 73.1503 80.3866 73.0342 80.4364 73.0176C80.5525 72.9845 80.6852 72.9015 80.7847 72.8352C81.0667 72.6859 81.3487 72.5034 81.5478 72.238C81.8298 71.8399 81.1663 71.4583 80.8843 71.8399C80.735 72.0223 80.4364 72.155 80.2373 72.2546C80.171 72.3043 80.0714 72.3375 79.9885 72.3873C79.9553 72.4039 79.9885 72.3873 79.9056 72.4536C79.806 72.5532 79.8226 72.5532 79.9221 72.437C79.9553 72.4205 79.9553 72.4205 79.9056 72.437C79.8392 72.4205 79.6899 72.4868 79.607 72.4868C79.4411 72.52 79.2918 72.52 79.1259 72.5366C78.6946 72.5532 78.2633 72.5698 77.8486 72.5698C77.1685 72.5863 76.4552 72.52 75.9741 73.084C75.7087 73.3992 75.576 73.847 75.5594 74.2452C75.5594 75.058 76.6045 75.4229 77.2514 75.5722C78.2799 75.8045 79.3581 75.821 80.4032 75.8045C81.0999 75.7879 81.7966 75.7547 82.4933 75.6883C82.991 75.6386 82.991 74.8589 82.4933 74.9087Z" fill="#1D1819"/>
<path d="M80.6852 77.0652C80.8677 77.032 80.6852 77.0486 80.6188 77.032C80.5691 77.032 80.5027 77.032 80.453 77.0154C80.3534 76.9988 80.5027 77.032 80.4364 77.0154C80.3866 77.0154 80.3534 76.9988 80.3037 76.9988C79.889 76.9325 79.4908 76.8661 79.0761 76.7832C78.1638 76.5841 77.1851 76.3519 76.3888 75.8542C76.223 75.7381 76.1234 75.6718 75.9741 75.5059C76.0239 75.5556 75.9575 75.4561 75.941 75.4395C75.9244 75.4229 75.9244 75.4063 75.9078 75.3898C75.8746 75.3234 75.9244 75.4229 75.9078 75.3898C75.8912 75.34 75.8912 75.3068 75.8746 75.2736C75.858 75.2239 75.8746 75.2902 75.8746 75.2902C75.8746 75.2736 75.8746 75.2405 75.8746 75.2073C75.8912 74.7096 75.1115 74.7096 75.1115 75.2073C75.095 76.2026 76.2395 76.7002 77.0192 76.9988C77.9813 77.3638 78.9932 77.5794 80.0051 77.7287C80.2871 77.7619 80.6023 77.8614 80.8843 77.8116C81.3653 77.7287 81.1663 76.9822 80.6852 77.0652Z" fill="#1D1819"/>
<path d="M77.0358 76.2524C77.0026 76.2524 76.986 76.269 76.9694 76.269C76.9197 76.269 77.1021 76.2524 77.0192 76.2524C77.0192 76.2524 77.0026 76.269 76.986 76.269C76.9528 76.269 76.9197 76.269 76.8865 76.269C76.704 76.3021 76.5381 76.3187 76.3557 76.3353C76.1566 76.3519 75.9741 76.3685 75.7751 76.3685C75.6921 76.3685 75.6258 76.3851 75.5428 76.3685C75.5263 76.3685 75.5097 76.3685 75.4931 76.3685C75.4433 76.3685 75.6258 76.3851 75.5428 76.3685C75.5097 76.3685 75.4267 76.3353 75.576 76.4017C75.3935 76.3187 75.1447 76.3353 75.0452 76.5344C74.9623 76.7003 74.9954 76.9657 75.1779 77.0652C75.4599 77.1813 75.7751 77.1481 76.0571 77.1316C76.3557 77.115 76.6543 77.0818 76.9528 77.032C77.0358 77.032 77.1353 77.0154 77.2348 76.9988C77.3178 76.9823 77.4173 76.8993 77.4671 76.8164C77.5168 76.7334 77.5334 76.6173 77.5003 76.5344C77.4339 76.3021 77.2348 76.2192 77.0358 76.2524Z" fill="#1D1819"/>
<path d="M79.806 77.8614C79.6899 78.1434 79.5572 78.4088 79.4079 78.7572C79.0761 79.5036 78.6946 80.2667 78.3131 80.9966C77.3012 82.9042 76.14 84.8119 74.5641 86.3048C73.8342 87.0015 72.9385 87.6651 71.8934 87.7812C71.4124 87.8309 71.4124 88.594 71.8934 88.5442C74.0167 88.3286 75.5926 86.5371 76.787 84.928C78.0477 83.2194 79.0761 81.3283 79.9719 79.3875C80.171 78.9562 80.37 78.5083 80.5359 78.0605C80.735 77.596 79.9885 77.3969 79.806 77.8614Z" fill="#1D1819"/>
<path d="M46.2646 25.8904C44.4067 26.1061 43.4944 24.9615 43.2455 23.2363C43.0465 21.8097 43.0133 19.703 43.7764 18.4423C44.1247 17.8783 44.7882 17.3309 45.4849 17.3475C46.2314 17.3475 46.812 18.0608 47.1438 18.658C47.8239 19.9519 47.4589 21.3453 47.3096 22.6889C47.1769 23.7837 46.8452 25.426 47.3428 26.4876C47.5419 26.8857 47.94 27.0682 48.3547 26.8194C48.7031 26.6203 48.7528 26.3052 48.8358 25.9402C49.1344 24.5966 49.4329 23.2363 49.8311 21.9093C50.0633 21.1462 50.76 20.831 51.4401 20.3168C52.6179 19.4542 53.7791 18.575 54.9568 17.7124C55.3384 17.4304 55.7199 17.165 56.0848 16.883C56.4332 16.6176 56.5161 16.2859 56.7484 15.9209C58.4404 13.2336 62.6372 14.428 65.0425 15.2242C66.1207 15.5891 67.1658 16.037 68.2274 16.4683C68.808 16.7006 69.3554 16.8664 69.4881 17.5963C69.5711 17.9613 69.5213 18.3428 69.4881 18.7077C69.2559 21.6273 68.7417 24.5468 68.0284 27.3834C67.4809 29.573 66.8008 31.7461 65.8719 33.8196C64.9595 35.86 63.8813 37.9501 61.9571 39.2108C60.1489 40.4052 57.9261 40.8033 55.8028 40.4217C53.4473 39.9904 51.6558 38.7132 50.1628 36.8719C49.3168 35.8434 48.6201 34.6988 48.0395 33.4879C47.8239 33.04 47.1604 33.4381 47.376 33.886C48.4874 36.1586 50.0799 38.4643 52.2364 39.8743C54.0113 41.0355 56.3502 41.5166 58.4569 41.2677C60.5802 41.0355 62.5708 40.0402 63.9974 38.4643C65.5401 36.7557 66.5022 34.4666 67.2985 32.3433C68.7748 28.4782 69.6208 24.3975 70.1019 20.3168C70.2014 19.4874 70.3673 18.5584 70.2844 17.729C70.1517 16.2527 69.0734 15.9873 67.9122 15.5062C65.1918 14.3782 61.9737 13.0843 58.9546 13.6483C57.3953 13.9469 56.5327 14.8261 55.7697 16.1366C55.8526 16.0039 55.836 16.1034 55.7033 16.2195C55.5208 16.3522 55.3218 16.4849 55.1393 16.6176C54.5421 17.0655 53.9449 17.4968 53.3478 17.9447C52.1866 18.8073 51.0254 19.6699 49.8642 20.549C49.068 21.1628 48.9685 22.0752 48.7196 23.0373C48.5372 23.8169 48.3547 24.5966 48.1722 25.3762C48.1225 25.5919 48.0395 25.8407 48.0064 26.0729C47.9898 26.3052 48.0395 26.0895 48.0561 26.0729C47.94 26.2388 47.9732 26.1559 47.9732 26.1724C47.9898 26.1061 48.0229 26.3217 48.0395 26.1393C48.0561 26.0066 47.9566 25.7577 47.94 25.6084C47.7409 23.5017 48.7196 21.2955 48.1722 19.222C47.6248 17.1319 45.4352 15.6223 43.6105 17.4304C42.4161 18.6248 42.3498 20.6486 42.3995 22.2576C42.4327 23.6676 42.7147 25.3928 43.992 26.2388C44.6721 26.6867 45.4684 26.753 46.2646 26.6535C46.7456 26.5872 46.7456 25.8241 46.2646 25.8904Z" fill="#1D1819"/>
<path d="M70.1848 18.2267C72.3413 15.9707 74.166 12.2715 72.5901 9.21927C72.1423 8.3235 70.583 6.01774 69.4052 7.32821C68.8246 7.97515 68.7085 9.06997 68.6753 9.91598C68.6587 10.4136 69.4218 10.397 69.455 9.91598C69.5877 8.07468 69.7204 5.47033 68.609 3.89444C68.0284 3.09821 66.7179 2.8328 66.0046 3.64562C65.4738 4.25939 65.5567 5.25468 65.8055 5.98456C66.0212 5.85186 66.2368 5.73574 66.4359 5.60303C64.9927 4.2428 63.3339 3.03186 61.6087 2.03656C59.0873 0.576797 55.7862 -0.750262 52.8999 0.493856C52.1866 0.792444 51.5397 1.25691 51.0088 1.82091C50.9591 1.85409 50.6439 2.31856 50.8927 2.13609C50.8595 2.15268 50.7932 2.13609 50.76 2.15268C50.6771 2.18586 50.561 2.18586 50.478 2.20244C49.5325 2.36833 48.6201 2.6835 47.741 3.06503C44.6721 4.42527 42.5986 7.02962 42.2005 10.3804C41.9019 12.935 41.8189 15.556 42.0512 18.1106C42.1341 18.9897 42.2171 19.9021 42.4659 20.7481C42.5986 21.2292 43.3451 21.0301 43.2124 20.549C42.5488 18.2764 42.6318 15.6555 42.7479 13.3166C42.8474 11.1601 42.9469 8.90409 44.1247 7.02962C44.9209 5.75233 46.0987 4.77362 47.4092 4.07692C48.3215 3.61244 49.2837 3.2475 50.279 3.03186C50.5112 2.98209 50.7434 2.9655 50.9591 2.89915C50.8264 2.93233 51.1415 2.79962 51.2245 2.71668C51.5397 2.46786 51.7719 2.1195 52.0705 1.87068C54.5753 -0.136497 58.0257 0.991503 60.5471 2.33515C62.4713 3.36362 64.3126 4.6575 65.9051 6.15045C66.1705 6.39927 66.6681 6.15045 66.5354 5.76892C66.3861 5.30445 66.2037 4.45845 66.635 4.0935C67.6137 3.26409 68.2606 4.79021 68.4265 5.47033C68.7914 6.88033 68.7914 8.45621 68.6753 9.91598C68.9407 9.91598 69.1895 9.91598 69.455 9.91598C69.4715 9.30221 69.5379 8.55574 69.8531 8.02492C70.6161 6.74762 72.2086 10.1648 72.3247 10.7454C72.839 13.217 71.2963 15.9375 69.6374 17.6793C69.2891 18.0442 69.8365 18.5916 70.1848 18.2267Z" fill="#1D1819"/>
<path d="M75.1447 69.2687C75.9741 68.5388 76.8035 67.8089 77.633 67.0625C78.1306 66.6146 78.6448 66.1501 79.1591 65.7022C79.4577 65.4368 79.6567 65.188 80.1046 65.188C81.3985 65.188 82.709 65.3207 84.0028 65.3871C84.318 65.3871 84.8488 65.3207 85.164 65.47C85.8773 65.8018 85.0147 66.3326 84.7161 66.5316C83.5881 67.2781 82.4435 68.0246 81.3155 68.7711C80.9008 69.0365 81.2824 69.7166 81.6971 69.4346C82.8085 68.7047 83.9365 67.9748 85.0479 67.2283C85.5124 66.9298 86.0432 66.6643 86.1593 66.0506C86.2754 65.2543 85.6617 64.7069 84.9318 64.6572C83.5052 64.5576 82.062 64.5079 80.6354 64.4415C80.0383 64.4083 79.5074 64.3752 79.0098 64.7899C78.6448 65.1051 78.2965 65.4368 77.9315 65.7686C76.8201 66.7473 75.7087 67.7426 74.5973 68.7379C74.2324 69.0696 74.7798 69.6005 75.1447 69.2687Z" fill="#1D1819"/>
<path d="M84.7659 65.8017C83.5716 65.752 82.3938 65.7188 81.216 65.669C80.7516 65.6524 80.171 65.5529 79.7397 65.752C79.2586 65.9842 78.8273 66.4155 78.4126 66.7307C77.915 67.1122 77.4339 67.4937 76.9363 67.8753C76.5547 68.1739 76.9363 68.8374 77.3178 68.5388C78.1804 67.8753 79.0098 67.1951 79.889 66.5648C80.2207 66.3326 80.7018 66.4321 81.0833 66.4487C81.7966 66.4653 82.5099 66.4984 83.2232 66.515C83.7374 66.5316 84.2517 66.5482 84.7659 66.5648C85.2636 66.598 85.2636 65.8183 84.7659 65.8017Z" fill="#1D1819"/>
<path d="M69.6706 67.6099C68.891 63.7282 68.1113 59.83 67.3151 55.9318C67.2155 55.3843 67.0994 54.8369 66.9833 54.2729C66.8838 53.7919 66.1539 53.9909 66.2368 54.472C67.0331 58.3702 67.8127 62.2685 68.5924 66.1501C68.7085 66.7141 68.8246 67.2615 68.9241 67.8255C69.0237 68.3066 69.7701 68.1075 69.6706 67.6099Z" fill="#1D1819"/>
<path d="M19.5244 16.2361C20.951 19.5703 24.7994 21.1296 28.1337 19.703C31.4679 18.293 33.0106 14.4279 31.6006 11.0937C30.174 7.75946 26.3255 6.21676 22.9913 7.62676C19.6571 9.05335 18.0978 12.9018 19.5244 16.2361Z" fill="#EC2029" stroke="#1D1819" stroke-width="0.352675"/>
<path d="M22.7757 12.0227C23.1738 12.9516 24.252 13.3995 25.1809 13.0014C26.1099 12.6033 26.5412 11.5251 26.1431 10.5961C25.745 9.66717 24.6667 9.23587 23.7378 9.63399C22.8088 10.0321 22.3775 11.0938 22.7757 12.0227ZM29.4275 16.7006L28.5981 14.7598C28.1005 13.582 26.7237 13.018 25.5459 13.5322C24.3681 14.0299 23.8207 15.3901 24.3184 16.5845L25.1478 18.5253C25.9274 18.5585 26.7237 18.4258 27.5033 18.1106C28.2664 17.7788 28.9133 17.2978 29.4275 16.7006Z" fill="white" stroke="#1D1819" stroke-width="0.352675"/>
<path d="M80.6354 43.2749L80.5691 43.0924V43.0759C79.0927 39.4928 79.1923 35.6277 80.5359 32.2769C81.9127 28.8597 84.5834 25.9734 88.2328 24.4141L88.4319 24.3477C92.0316 22.8714 95.88 22.9709 99.2308 24.3146C102.648 25.6914 105.534 28.3621 107.094 32.0115L107.177 32.2106C108.636 35.8102 108.553 39.6587 107.193 43.0095C105.816 46.4267 103.146 49.313 99.4963 50.8723L99.3138 50.9553H99.2972C95.7141 52.415 91.8491 52.3321 88.4983 50.9719C85.0811 49.595 82.1947 46.9243 80.6354 43.2749ZM82.4601 42.5119C83.8038 45.6636 86.292 47.9694 89.2281 49.1472C92.1808 50.3415 95.5814 50.4079 98.7332 49.0642L98.7498 49.0476C101.885 47.704 104.191 45.2157 105.368 42.2796C106.563 39.3269 106.629 35.9429 105.286 32.7911L105.269 32.7746C103.925 29.6228 101.437 27.317 98.501 26.1393C95.5483 24.9449 92.1643 24.8786 89.0125 26.2222L88.9959 26.2388C85.8441 27.5824 83.5384 30.0707 82.3606 33.0068C81.1663 35.9595 81.0999 39.3601 82.4435 42.5119H82.4601Z" fill="#EC2029" stroke="#1D1819" stroke-width="0.352675"/>
<path d="M102.565 38.3482C102.548 38.4975 102.548 38.5638 102.532 38.6136C102.499 39.0283 102.266 39.2605 101.918 39.244C101.537 39.2274 101.371 38.962 101.354 38.5307C101.338 37.8008 101.371 37.0543 101.255 36.341C100.657 32.957 97.9038 30.3858 94.5032 29.938C93.9724 29.8716 93.7567 29.656 93.8065 29.2578C93.8563 28.8763 94.1383 28.6938 94.6525 28.7768C99.4133 29.4403 102.565 33.4381 102.565 37.7013C102.565 37.9501 102.565 38.1989 102.565 38.3482Z" fill="#EC2029" stroke="#1D1819" stroke-width="0.352675"/>
<path d="M94.2544 31.7958C97.4393 32.2105 99.7451 35.0305 99.5294 38.2321C99.4963 38.7131 99.264 38.9454 98.8825 38.9288C98.501 38.8956 98.3185 38.6468 98.3517 38.1823C98.501 35.5116 96.7426 33.3385 94.1051 32.9404C93.624 32.8741 93.4415 32.6584 93.4913 32.2769C93.5411 31.912 93.8231 31.7295 94.2544 31.7958Z" fill="#EC2029" stroke="#1D1819" stroke-width="0.352675"/>
<path d="M96.4772 37.9667C96.444 38.4146 96.245 38.6302 95.88 38.6137C95.4985 38.5971 95.3326 38.3814 95.3326 37.9501C95.3492 36.8719 94.8018 36.2084 93.6904 35.9429C93.2259 35.8434 92.9937 35.4287 93.2425 35.0969C93.3752 34.9311 93.6572 34.8149 93.8728 34.8315C95.399 34.9476 96.6099 36.4074 96.4772 37.9667Z" fill="#EC2029" stroke="#1D1819" stroke-width="0.352675"/>
<path fill-rule="evenodd" clip-rule="evenodd" d="M85.4294 37.3197C86.3086 40.3885 88.1499 42.8104 90.6381 44.7347C91.7827 45.6304 93.0434 46.294 94.8681 46.5096C95.5483 46.6091 96.444 46.3769 97.2568 45.7134C97.655 45.3982 97.7213 45.0498 97.5388 44.6185C97.1905 43.7228 96.6431 42.9763 95.88 42.4123C95.1667 41.8981 95.0506 41.9313 94.5032 42.5616C93.8065 43.3744 92.9605 43.391 92.297 42.5782C91.0528 41.0521 89.7921 39.5094 88.5646 37.9501C88.3821 37.7344 88.2494 37.4524 88.1997 37.187C88.0835 36.5401 88.4485 36.0258 89.2613 35.7107C89.6594 35.5448 89.7424 35.3291 89.6097 34.9476C89.2447 33.803 88.5314 32.9072 87.4532 32.3267C87.2707 32.2271 86.9224 32.2271 86.7399 32.3267C86.093 32.7082 85.6285 33.2722 85.3963 34.0021C85.0479 35.1135 85.1308 36.2249 85.4294 37.3197Z" fill="#EC2029" stroke="#1D1819" stroke-width="0.352675"/>
</svg>
