<svg width="148" height="134" viewBox="0 0 148 134" fill="none" xmlns="http://www.w3.org/2000/svg">
<path fill-rule="evenodd" clip-rule="evenodd" d="M76.6425 21.3286C103.067 21.3286 127.416 29.256 147.989 42.6571V133.634H0.0106812V46.4321C21.528 30.5772 47.9527 21.3286 76.6425 21.3286Z" fill="#F9D4DB"/>
<path d="M57.3902 102.302C63.9964 102.113 70.6026 102.113 77.2087 102.113C78.1525 102.113 79.0962 102.113 80.04 102.113C79.8512 102.302 79.8512 102.49 79.6625 102.679C75.8875 97.5829 72.3013 92.298 68.5263 87.013C67.9601 86.0693 67.3938 85.503 66.2613 85.3143C65.8839 85.3143 65.5064 85.3143 65.3176 85.3143C63.8076 85.3143 62.1089 85.3143 60.5989 85.3143C56.0689 85.503 51.3502 85.503 46.8203 85.503C44.744 85.503 42.6678 85.503 40.5916 85.503C40.0253 85.503 39.2703 85.503 38.5153 85.503C38.1378 85.503 37.7604 85.503 37.3829 85.503C36.8166 85.503 37.0054 85.8805 37.1941 86.258C37.7604 87.2017 38.3266 87.9567 38.8928 88.9005C39.8366 90.5992 40.7803 92.298 41.9128 93.8079C42.1016 94.3742 41.3466 94.7517 41.1578 94.3742C40.2141 92.8642 39.2703 91.1655 38.3266 89.6555C37.7604 88.9005 37.1941 87.9567 36.6279 87.013C36.2504 86.4468 35.8729 85.8805 36.0616 85.3143C36.4391 84.3705 37.9491 84.5593 38.7041 84.5593C40.5916 84.5593 42.2903 84.5593 43.989 84.5593C49.0853 84.5593 53.9927 84.5593 58.9002 84.5593C60.7876 84.5593 62.6751 84.5593 64.5626 84.5593C65.5064 84.5593 66.6388 84.3705 67.5826 84.748C68.7151 85.3143 69.4701 86.8243 70.2251 87.768C71.1688 89.278 72.3013 90.788 73.4338 92.298C75.6988 95.6954 77.9637 98.9041 80.4175 102.302C80.6062 102.49 80.4175 102.868 80.04 102.868C73.4338 102.868 66.8276 103.057 60.2214 103.057C59.2777 103.057 58.3339 103.057 57.3902 103.057C56.8239 103.057 56.8239 102.302 57.3902 102.302Z" fill="#1D1819"/>
<path d="M125.717 106.454C124.018 107.964 121.753 108.342 120.243 108.153C119.488 108.153 118.733 107.964 118.167 107.398C117.412 107.02 115.336 105.133 114.392 103.812C114.203 103.623 114.015 103.623 114.015 103.434C114.77 103.057 115.525 102.679 115.713 101.924C115.713 101.924 117.978 101.169 117.978 99.4704C117.978 99.4704 120.055 99.0929 119.677 95.6954V95.1292H119.866C119.866 95.1292 121.753 95.8841 122.697 96.0729C123.641 96.4504 127.038 98.5266 127.793 100.037C128.36 101.169 128.171 103.434 126.661 105.322C126.283 105.699 126.095 106.077 125.717 106.454Z" fill="white"/>
<path d="M114.958 89.0892L116.657 88.9005C117.223 88.9005 117.79 89.6554 117.601 90.2217L116.091 93.9967V94.1854C114.392 93.8079 110.806 93.0529 109.485 93.2417C107.786 93.4304 108.541 95.5066 108.541 95.5066L106.842 94.9404C106.465 94.7516 106.087 94.5629 105.71 94.3741C105.521 94.3741 105.521 94.3741 105.332 94.3741L105.521 94.1854L106.842 90.0329C107.031 89.6554 107.597 89.2779 108.163 89.2779L114.958 89.0892Z" fill="white"/>
<path d="M129.681 99.0929C129.681 99.0929 130.058 102.302 126.661 105.322C128.171 103.434 128.36 101.169 127.793 100.037C127.038 98.5266 123.641 96.4504 122.697 96.0729C121.753 95.8842 119.866 95.1292 119.866 95.1292H119.677L118.922 91.1655L118.545 89.0892C118.356 88.7117 117.978 88.3342 117.412 88.3342C116.657 88.3342 115.525 88.3342 114.958 88.9005V89.0892L108.163 89.278C107.597 89.278 107.031 89.6555 106.842 90.033L105.521 94.1854L105.332 94.3742C104.388 93.9967 104.011 94.7517 104.011 94.7517C101.935 94.5629 102.312 96.0729 102.312 96.0729L102.879 96.8279C102.312 97.0167 102.312 97.5829 102.312 97.5829C102.312 97.5829 104.388 103.623 110.617 104.567C111.183 104.567 111.75 104.378 112.316 104.189L113.071 103.812C113.071 103.812 113.448 103.623 114.015 103.434C114.015 103.623 114.203 103.623 114.392 103.812L115.525 133.634H58.9002C60.0326 123.441 61.7314 109.852 62.2976 104.755C62.2976 103.434 62.4864 102.679 62.4864 102.679L80.2287 102.49L80.4175 101.358C80.6062 100.414 80.4175 99.2816 79.8512 98.5266L69.8476 84.1818C69.0926 83.238 68.1488 82.6718 67.0163 82.6718L51.7277 82.8605C51.7277 82.8605 52.294 76.6318 54.9364 67.3832C57.3902 58.1345 72.49 50.2071 72.49 50.2071C72.8675 50.0183 73.8113 49.4521 74.9438 49.0746C74.9438 49.2633 75.1325 49.4521 75.1325 49.6408C77.2087 54.5483 82.1162 57.5683 87.4011 57.757C90.2324 57.9458 93.6298 57.5683 95.7061 55.6808C95.7061 55.6808 99.6698 53.0383 101.18 49.2633L102.124 49.6408C103.067 49.8296 104.011 50.2071 104.955 50.5846C109.107 52.6608 120.243 58.512 123.452 67.3832C123.452 67.3832 130.436 93.8079 129.681 99.0929Z" fill="#EC2029"/>
<path d="M117.601 90.2217C117.79 89.6555 117.223 88.9005 116.657 88.9005L114.958 89.0892V88.9005C115.525 88.3342 116.657 88.3342 117.412 88.3342C117.978 88.3342 118.356 88.7117 118.545 89.0892L118.922 91.1655L119.677 95.1292V95.6954C120.055 99.0929 117.978 99.4704 117.978 99.4704C117.978 101.169 115.713 101.924 115.713 101.924C115.525 102.679 114.77 103.057 114.015 103.434C113.448 103.623 113.071 103.812 113.071 103.812L112.316 104.189C111.75 104.378 111.183 104.567 110.617 104.567C104.388 103.623 102.312 97.5829 102.312 97.5829C102.312 97.5829 102.312 97.0167 102.878 96.8279L102.312 96.0729C102.312 96.0729 101.935 94.5629 104.011 94.7517C104.011 94.7517 104.388 93.9967 105.332 94.3742C105.521 94.3742 105.521 94.3742 105.71 94.3742C106.087 94.5629 106.465 94.7517 106.842 94.9404L108.541 95.5067C108.541 95.5067 107.786 93.4304 109.485 93.2417C110.806 93.0529 114.392 93.8079 116.091 94.1854V93.9967L117.601 90.2217Z" fill="white"/>
<path d="M87.2124 13.0236C87.2124 13.2124 86.4574 13.5899 85.7024 14.1561C86.6462 13.5899 87.2124 13.2124 87.2124 13.0236ZM100.425 24.726C100.425 26.236 98.9148 27.5572 99.1035 26.236C99.2923 25.1035 98.726 14.7224 98.726 14.7224C98.726 14.7224 97.0273 13.0236 97.0273 11.5136C97.0273 11.5136 90.9874 16.0436 86.6462 16.0436C84.0037 16.0436 84.7587 15.0999 85.7024 14.1561C83.6262 15.6661 79.4737 18.1198 75.6987 18.8748C75.6987 21.706 75.6987 25.481 76.265 27.1798C76.265 27.1798 75.6987 28.3122 74.9438 26.4248C74.5663 25.481 74.1888 23.7823 74 22.0835C74 22.0835 74 21.8948 74 21.706C73.8113 20.5736 73.0563 19.4411 71.9238 19.0636C71.3575 18.6861 70.98 18.3086 71.1688 17.5536C71.5463 15.6661 70.4138 10.0037 74.9438 7.54993C79.4737 4.90745 84.1924 -3.58622 97.5936 2.64247L98.3485 5.28495C98.3485 5.28495 104.388 10.5699 103.822 16.7986C103.822 16.7986 104.2 18.3086 102.501 18.4973C101.369 18.8748 100.614 19.8186 100.614 20.9511C100.614 20.9511 100.614 21.1398 100.614 21.3286C100.614 23.216 100.425 24.726 100.425 24.726Z" fill="black"/>
<path d="M93.0636 23.5936C93.2523 23.5936 93.8186 23.5936 94.0073 23.7823C94.3848 23.7823 94.9511 24.3486 94.5736 24.9148C94.1961 25.1036 93.4411 25.2923 92.6861 25.2923C92.3086 25.2923 92.1198 25.1036 91.9311 24.9148C91.9311 24.7261 91.9311 24.3486 92.1198 24.1598C92.3086 23.9711 92.6861 23.7823 93.0636 23.5936Z" fill="black"/>
<path d="M95.7061 20.7623C93.8186 20.3848 91.7424 20.7623 90.7986 20.951C90.7986 21.1398 90.6099 20.951 90.6099 20.7623C91.1761 19.0636 93.0636 18.8748 93.0636 18.8748C93.0636 18.8748 95.8948 19.0636 95.8948 20.5736C95.8948 20.7623 95.8948 20.951 95.7061 20.7623Z" fill="black"/>
<path d="M82.8712 25.2923C82.1162 25.2923 81.55 25.1035 81.1725 24.726C80.795 24.3485 81.3612 23.7823 81.7387 23.5935C81.9275 23.5935 82.305 23.4048 82.6825 23.5935C82.8712 23.7823 83.2487 23.971 83.4374 24.1598C83.6262 24.3485 83.6262 24.5373 83.4374 24.9148C83.4374 25.1035 83.2487 25.1035 82.8712 25.2923Z" fill="black"/>
<path d="M80.0399 20.5736C80.6062 19.8186 81.5499 18.6861 82.6824 18.8748C82.6824 18.8748 84.3812 19.0636 84.9474 20.7623C84.9474 20.9511 84.9474 20.9511 84.7587 20.9511C84.0037 20.7623 81.9274 20.1961 80.2287 20.7623C80.0399 20.7623 80.0399 20.5736 80.0399 20.5736Z" fill="black"/>
<path d="M101.18 49.2633C99.6698 53.0383 95.7061 55.6807 95.7061 55.6807C93.6298 57.5682 90.2324 57.9457 87.4011 57.757C82.1162 57.5682 77.2087 54.5482 75.1325 49.6408C75.1325 49.452 74.9438 49.2633 74.9438 49.0745C75.51 48.697 76.265 48.3195 76.8312 48.1308C77.775 52.472 81.3612 54.5482 81.3612 54.5482C81.3612 54.5482 89.8549 59.4557 97.2161 52.2833C97.2161 52.2833 99.1035 49.8295 99.2923 48.5083L101.18 49.2633Z" fill="#D84652"/>
<path d="M102.312 24.9148C101.746 31.1435 99.2923 30.9547 99.2923 30.9547C98.726 34.541 97.4048 36.9947 96.2723 38.6934C96.2723 38.6934 95.1398 46.0546 98.3486 48.3196L99.2923 48.5083C99.1035 49.8296 97.2161 52.2833 97.2161 52.2833C89.8549 59.4557 81.3612 54.5483 81.3612 54.5483C81.3612 54.5483 77.775 52.472 76.8312 48.1308C77.3975 47.7533 77.775 47.5646 77.775 47.5646C80.04 45.8659 79.8512 38.6934 79.8512 38.6934C77.02 35.4847 76.4537 31.521 76.4537 31.521C74.9438 32.0872 72.6788 28.6898 72.3013 25.1035C71.9238 21.5173 74 22.0836 74 22.0836C74.1888 23.7823 74.5663 25.481 74.9438 26.4248C75.6987 28.3123 76.265 27.1798 76.265 27.1798C75.6987 25.481 75.6987 21.7061 75.6987 18.8749C79.4737 18.1199 83.6262 15.6661 85.7024 14.1561C84.7587 15.0999 84.0037 16.0436 86.6462 16.0436C90.9874 16.0436 97.0273 11.5137 97.0273 11.5137C97.0273 13.0237 98.726 14.7224 98.726 14.7224C98.726 14.7224 99.2923 25.1035 99.1035 26.236C98.9148 27.5573 100.425 26.236 100.425 24.7261C100.425 24.7261 100.614 23.2161 100.614 21.3286H100.802C103.445 20.1961 102.312 24.9148 102.312 24.9148Z" fill="white"/>
<path d="M62.4864 102.679C62.4864 102.679 62.2976 103.434 62.2976 104.755L59.6551 109.097C59.2776 109.852 58.7114 110.418 58.1451 111.173C57.0127 112.494 56.2577 113.06 56.2577 113.06C52.294 115.891 46.8203 108.719 46.8203 108.719L54.9364 104.944C55.3139 104.755 55.6914 104.567 56.0689 104.189C56.2577 103.812 56.2577 103.623 56.2577 103.245L56.8239 102.868C57.0127 102.868 57.2014 102.679 57.3902 102.679H62.4864Z" fill="white"/>
<path d="M54.9364 104.944L46.8202 108.719C46.4427 108.908 46.0652 109.097 45.6877 108.908C44.9328 108.719 43.8003 108.342 43.234 107.209L41.5353 105.51C41.5353 105.51 41.1578 104.944 41.3465 103.812C41.3465 103.623 41.1578 103.245 40.969 103.245C40.5915 102.868 39.8365 102.49 39.8365 102.113C39.8365 101.547 40.0253 100.792 40.0253 100.225C40.0253 100.037 40.0253 99.8479 39.8365 99.6591C39.4591 98.7154 38.1378 95.1292 40.4028 94.3742C40.7803 94.1854 41.1578 94.1854 41.5353 94.1854C43.989 93.8079 46.8202 94.5629 46.8202 95.1292C46.8202 95.1292 47.5752 96.8279 45.3102 97.2054L43.234 97.5829L43.989 98.7154L54.1814 98.5266C54.7477 98.5266 55.1252 98.5266 55.5027 98.9041C55.8802 99.0929 56.0689 99.4704 56.0689 100.037C55.8802 100.225 55.6914 100.414 55.5027 100.603C55.8802 100.603 56.4464 100.414 56.8239 100.414C57.3901 100.414 57.7676 100.98 57.7676 101.547C57.7676 101.924 57.5789 102.302 57.3901 102.679C57.2014 102.679 57.0126 102.868 56.8239 102.868L56.2577 103.245C56.2577 103.623 56.2577 103.812 56.0689 104.189C55.6914 104.567 55.3139 104.755 54.9364 104.944Z" fill="white"/>
<path d="M45.3103 97.2054C47.5753 96.8279 46.8203 95.1292 46.8203 95.1292C46.8203 94.5629 43.989 93.8079 41.5353 94.1854L36.6279 86.0693C36.4391 85.6918 36.6279 85.3143 36.8166 85.1255C36.8166 85.1255 37.0054 85.1255 37.1941 85.1255L66.4501 84.9368C67.2051 84.9368 67.9601 85.3143 68.5263 86.0693C70.6026 89.0892 76.6425 97.7716 80.2287 102.49L62.4864 102.679H57.3902C57.5789 102.302 57.7677 101.924 57.7677 101.547C57.7677 100.98 57.3902 100.414 56.8239 100.414C56.4464 100.414 55.8802 100.603 55.5027 100.603C55.6914 100.414 55.8802 100.225 56.0689 100.037C56.0689 99.4704 55.8802 99.0929 55.5027 98.9041C55.1252 98.5266 54.7477 98.5266 54.1815 98.5266L43.989 98.7154L43.2341 97.5829L45.3103 97.2054Z" fill="white"/>
<path d="M80.2287 102.49C76.6425 97.7716 70.6025 89.0892 68.5263 86.0692C67.9601 85.3142 67.2051 84.9367 66.4501 84.9367L37.1941 85.1255C37.0053 85.1255 36.8166 85.1255 36.8166 85.1255L37.1941 84.748C37.3828 84.3705 37.5716 83.993 37.9491 83.6155C38.3266 83.238 38.7041 83.0492 39.2703 83.0492L51.7277 82.8605L67.0163 82.6718C68.1488 82.6718 69.0925 83.238 69.8475 84.1817L79.8512 98.5266C80.4174 99.2816 80.6062 100.414 80.4174 101.358L80.2287 102.49Z" fill="white"/>
<path d="M74 22.0835C74 22.0835 71.9238 21.5173 72.3013 25.1035C72.6788 28.6897 74.9438 32.0872 76.4537 31.5209C76.4537 31.5209 77.02 35.4846 79.8512 38.6934C81.3612 40.2034 83.2487 41.3358 85.8912 41.9021" stroke="#231F1F" stroke-width="0.0787585"/>
<path d="M91.5536 41.9021C91.5536 41.9021 94.0073 41.5247 96.2723 38.6934C97.4048 36.9947 98.7261 34.541 99.2923 30.9547C99.2923 30.9547 101.746 31.1435 102.312 24.9148C102.312 24.9148 103.445 20.1961 100.802 21.3286" stroke="#231F1F" stroke-width="0.0787585"/>
<path d="M79.8512 38.6934C79.8512 38.6934 80.04 45.8658 77.775 47.5645C77.775 47.5645 77.3975 47.7533 76.8313 48.1308C76.265 48.3195 75.51 48.697 74.9438 49.0745C73.8113 49.452 72.8675 50.0183 72.4901 50.207" stroke="#231F1F" stroke-width="0.0787585"/>
<path d="M42.4791 98.9041L43.9891 98.7154L54.1815 98.5266" stroke="#231F1F" stroke-width="0.0787585"/>
<path d="M54.1815 98.5266C54.7477 98.5266 55.1252 98.5266 55.5027 98.9041C55.8802 99.0929 56.0689 99.4704 56.0689 100.037C55.8802 100.225 55.6914 100.414 55.5027 100.603C55.3139 100.792 55.1252 100.792 54.9365 100.792" stroke="#231F1F" stroke-width="0.0787585"/>
<path d="M54.9364 100.792L44.3665 102.679" stroke="#231F1F" stroke-width="0.0787585"/>
<path d="M44.9328 105.888L50.2178 105.322" stroke="#231F1F" stroke-width="0.0787585"/>
<path d="M50.2177 105.322C50.5952 105.133 50.9727 105.133 51.1615 104.944" stroke="#231F1F" stroke-width="0.0787585"/>
<path d="M51.1615 104.944L56.2577 103.245L56.824 102.868" stroke="#231F1F" stroke-width="0.0787585"/>
<path d="M56.8239 102.868C57.0127 102.868 57.2014 102.679 57.3902 102.679C57.5789 102.302 57.7677 101.924 57.7677 101.547C57.7677 100.98 57.3902 100.414 56.8239 100.414C56.4464 100.414 55.8802 100.603 55.5027 100.603" stroke="#231F1F" stroke-width="0.0787585"/>
<path d="M56.2576 103.245C56.2576 103.623 56.2576 103.812 56.0689 104.189C55.6914 104.567 55.3139 104.755 54.9364 104.944" stroke="#231F1F" stroke-width="0.0787585"/>
<path d="M54.9364 104.944L46.8203 108.719" stroke="#231F1F" stroke-width="0.0787585"/>
<path d="M46.8203 108.719C46.4428 108.908 46.0653 109.097 45.6878 108.908C44.9328 108.719 43.8003 108.342 43.2341 107.209" stroke="#231F1F" stroke-width="0.0787585"/>
<path d="M43.234 107.209L41.5353 105.51" stroke="#231F1F" stroke-width="0.0787585"/>
<path d="M41.5353 105.51C41.5353 105.51 41.1578 104.944 41.3465 103.812C41.3465 103.623 41.1578 103.245 40.969 103.245C40.5915 102.868 39.8365 102.49 39.8365 102.113C39.8365 101.547 40.0253 100.792 40.0253 100.225C40.0253 100.037 40.0253 99.8479 39.8365 99.6591C39.4591 98.7154 38.1378 95.1292 40.4028 94.3742C40.7803 94.1854 41.1578 94.1854 41.5353 94.1854C43.989 93.8079 46.8202 94.5629 46.8202 95.1292C46.8202 95.1292 47.5752 96.8279 45.3103 97.2054" stroke="#231F1F" stroke-width="0.0787585"/>
<path d="M45.3103 97.2053L43.2341 97.5828L42.1016 97.7716" stroke="#231F1F" stroke-width="0.0787585"/>
<path d="M57.3902 102.679H62.4864L80.2287 102.49" stroke="#231F1F" stroke-width="0.0787585"/>
<path d="M80.2287 102.49C76.6425 97.7716 70.6025 89.0892 68.5263 86.0693C67.9601 85.3143 67.2051 84.9368 66.4501 84.9368" stroke="#231F1F" stroke-width="0.0787585"/>
<path d="M66.4501 84.9368L37.1941 85.1255" stroke="#231F1F" stroke-width="0.0787585"/>
<path d="M37.1941 85.1255C37.0054 85.1255 36.8166 85.1255 36.8166 85.1255C36.6279 85.3142 36.4391 85.6917 36.6279 86.0692" stroke="#231F1F" stroke-width="0.0787585"/>
<path d="M36.6279 86.0692L41.5353 94.1854" stroke="#231F1F" stroke-width="0.0787585"/>
<path d="M43.2341 97.5829L43.9891 98.7154" stroke="#231F1F" stroke-width="0.0787585"/>
<path d="M117.978 95.1292L117.223 94.7516" stroke="#231F1F" stroke-width="0.0787585"/>
<path d="M117.223 94.7516C116.846 94.5629 116.657 94.3741 116.28 94.1854C116.091 94.1854 116.091 94.1854 116.091 94.1854C114.392 93.8079 110.806 93.0529 109.485 93.2416C107.786 93.4304 108.541 95.5066 108.541 95.5066" stroke="#231F1F" stroke-width="0.0787585"/>
<path d="M108.541 95.5067L106.842 94.9404" stroke="#231F1F" stroke-width="0.0787585"/>
<path d="M106.842 94.9404C106.465 94.7516 106.087 94.5629 105.71 94.3741C105.521 94.3741 105.521 94.3741 105.332 94.3741C104.388 93.9966 104.011 94.7516 104.011 94.7516C101.935 94.5629 102.312 96.0729 102.312 96.0729" stroke="#231F1F" stroke-width="0.0787585"/>
<path d="M102.312 96.0729L102.879 96.8279" stroke="#231F1F" stroke-width="0.0787585"/>
<path d="M102.879 96.8279C102.312 97.0166 102.312 97.5829 102.312 97.5829C102.312 97.5829 104.388 103.623 110.617 104.567C111.183 104.567 111.75 104.378 112.316 104.189" stroke="#231F1F" stroke-width="0.0787585"/>
<path d="M112.316 104.189L113.071 103.812" stroke="#231F1F" stroke-width="0.0787585"/>
<path d="M113.071 103.812C113.071 103.812 113.448 103.623 114.015 103.434C114.77 103.057 115.525 102.679 115.713 101.924C115.713 101.924 117.978 101.169 117.978 99.4703C117.978 99.4703 120.055 99.0928 119.677 95.6954" stroke="#231F1F" stroke-width="0.0787585"/>
<path d="M119.677 95.6954V95.1292L118.922 91.1655L118.545 89.0892" stroke="#231F1F" stroke-width="0.0787585"/>
<path d="M118.545 89.0892C118.356 88.7117 117.978 88.3342 117.412 88.3342C116.657 88.3342 115.525 88.3342 114.958 88.9005" stroke="#231F1F" stroke-width="0.0787585"/>
<path d="M114.015 103.434C114.015 103.623 114.203 103.623 114.392 103.812C115.336 105.133 117.412 107.02 118.167 107.398C118.733 107.964 119.488 108.153 120.243 108.153C121.753 108.342 124.018 107.964 125.717 106.454C126.095 106.077 126.283 105.699 126.661 105.322C128.171 103.434 128.36 101.169 127.793 100.037C127.038 98.5266 123.641 96.4504 122.697 96.0729C121.753 95.8841 119.866 95.1292 119.866 95.1292" stroke="#231F1F" stroke-width="0.0787585"/>
<path d="M122.697 107.775C124.396 107.02 125.717 106.265 126.661 105.322C130.058 102.302 129.681 99.0929 129.681 99.0929C130.436 93.8079 123.452 67.3832 123.452 67.3832C120.243 58.512 109.107 52.6608 104.955 50.5845C104.011 50.2071 103.067 49.8296 102.124 49.6408" stroke="#231F1F" stroke-width="0.0787585"/>
<path d="M102.124 49.6408L101.18 49.2633L99.2923 48.5083L98.3486 48.3196" stroke="#231F1F" stroke-width="0.0787585"/>
<path d="M98.3485 48.3195C95.1398 46.0545 96.2723 38.6934 96.2723 38.6934" stroke="#231F1F" stroke-width="0.0787585"/>
<path d="M105.521 94.1854L106.842 90.033" stroke="#231F1F" stroke-width="0.0787585"/>
<path d="M106.842 90.0329C107.031 89.6554 107.597 89.278 108.163 89.278" stroke="#231F1F" stroke-width="0.0787585"/>
<path d="M108.163 89.2779L114.958 89.0892L116.657 88.9005" stroke="#231F1F" stroke-width="0.0787585"/>
<path d="M116.657 88.9005C117.223 88.9005 117.79 89.6554 117.601 90.2217" stroke="#231F1F" stroke-width="0.0787585"/>
<path d="M117.601 90.2217L116.091 93.9966" stroke="#231F1F" stroke-width="0.0787585"/>
<path d="M106.653 94.1854L107.597 91.5429" stroke="#231F1F" stroke-width="0.0787585"/>
<path d="M107.597 91.5429C107.786 90.9767 108.352 90.5992 108.918 90.5992" stroke="#231F1F" stroke-width="0.0787585"/>
<path d="M108.918 90.5992L116.468 90.2217" stroke="#231F1F" stroke-width="0.0787585"/>
<path d="M115.336 97.9604C115.336 97.9604 109.485 96.2616 108.541 95.5067" stroke="#231F1F" stroke-width="0.0787585"/>
<path d="M104.011 94.7516C104.011 94.7516 103.634 95.3179 104.766 96.6391C106.087 97.9604 109.673 99.8479 109.673 99.8479" stroke="#231F1F" stroke-width="0.0787585"/>
<path d="M109.673 99.8479L112.693 100.603" stroke="#231F1F" stroke-width="0.0787585"/>
<path d="M102.879 96.8279C103.256 97.0166 107.031 101.358 108.163 101.735C109.296 102.113 110.806 102.679 110.806 102.679" stroke="#231F1F" stroke-width="0.0787585"/>
<path d="M72.49 50.207C72.49 50.207 57.3902 58.1345 54.9364 67.3831C52.294 76.6318 51.7277 82.8605 51.7277 82.8605" stroke="#231F1F" stroke-width="0.0787585"/>
<path d="M114.392 103.812L115.525 133.634" stroke="#231F1F" stroke-width="0.0787585"/>
<path d="M58.9001 133.634C60.0326 123.441 61.7314 109.852 62.2976 104.755C62.2976 103.434 62.4864 102.679 62.4864 102.679" stroke="#231F1F" stroke-width="0.0787585"/>
<path d="M114.015 88.9004C114.015 88.9004 114.958 68.3269 115.336 63.9857" stroke="#231F1F" stroke-width="0.0787585"/>
<path d="M118.922 91.1654C118.922 91.1654 122.886 86.4467 123.263 76.8206" stroke="#231F1F" stroke-width="0.0787585"/>
<path d="M61.7314 64.3632L62.4864 82.6717" stroke="#231F1F" stroke-width="0.0787585"/>
<path d="M46.8203 108.719C46.8203 108.719 52.294 115.891 56.2577 113.06C56.2577 113.06 57.0127 112.494 58.1451 111.173C58.7114 110.418 59.2776 109.851 59.6551 109.096" stroke="#231F1F" stroke-width="0.0787585"/>
<path d="M59.6552 109.097L62.2976 104.755" stroke="#231F1F" stroke-width="0.0787585"/>
<path d="M76.8312 48.1308C77.775 52.472 81.3612 54.5482 81.3612 54.5482C81.3612 54.5482 89.8549 59.4557 97.2161 52.2833C97.2161 52.2833 99.1035 49.8295 99.2923 48.5083" stroke="#231F1F" stroke-width="0.0787585"/>
<path d="M101.18 49.2633C99.6698 53.0383 95.7061 55.6808 95.7061 55.6808C93.6298 57.5683 90.2324 57.9458 87.4011 57.757C82.1162 57.5683 77.2087 54.5483 75.1325 49.6408C75.1325 49.4521 74.9438 49.2633 74.9438 49.0746" stroke="#231F1F" stroke-width="0.0787585"/>
<path d="M85.7024 14.1561C83.6262 15.6661 79.4737 18.1198 75.6988 18.8748" stroke="#231F1F" stroke-width="0.0787585"/>
<path d="M87.4011 13.0237H87.2124C87.2124 13.2124 86.6461 13.5899 85.7024 14.1562" stroke="#231F1F" stroke-width="0.0787585"/>
<path d="M85.7024 14.1562C86.4574 13.5899 87.2124 13.2124 87.2124 13.0237" stroke="#231F1F" stroke-width="0.0787585"/>
<path d="M75.6987 15.2886C75.6987 15.2886 75.6987 16.7986 75.6987 18.8748C75.6987 21.706 75.6987 25.481 76.265 27.1797C76.265 27.1797 75.6987 28.3122 74.9437 26.4247C74.5662 25.481 74.1887 23.7822 74 22.0835" stroke="#231F1F" stroke-width="0.0787585"/>
<path d="M74 22.0835C74 22.0835 74 21.8948 74 21.706C73.8113 20.5736 73.0563 19.4411 71.9238 19.0636C71.3575 18.6861 70.98 18.3086 71.1688 17.5536C71.5463 15.6661 70.4138 10.0037 74.9438 7.54993C79.4737 4.90745 84.1924 -3.58622 97.5936 2.64247" stroke="#231F1F" stroke-width="0.0787585"/>
<path d="M97.5936 2.64246L98.3486 5.28493" stroke="#231F1F" stroke-width="0.0787585"/>
<path d="M98.3486 5.28497C98.3486 5.28497 104.389 10.5699 103.822 16.7986C103.822 16.7986 104.2 18.3086 102.501 18.4974" stroke="#231F1F" stroke-width="0.0787585"/>
<path d="M102.501 18.4974C101.369 18.8749 100.614 19.8186 100.614 20.9511C100.614 20.9511 100.614 21.1398 100.614 21.3286C100.614 23.2161 100.425 24.7261 100.425 24.7261C100.425 26.236 98.9148 27.5573 99.1035 26.236C99.2923 25.1035 98.726 14.7224 98.726 14.7224C98.726 14.7224 97.0273 13.0237 97.0273 11.5137C97.0273 11.5137 90.9874 16.0436 86.6462 16.0436C84.0037 16.0436 84.7587 15.0999 85.7024 14.1561" stroke="#231F1F" stroke-width="0.0787585"/>
<path d="M36.8166 85.1255L37.1941 84.748" stroke="#231F1F" stroke-width="0.0787585"/>
<path d="M37.1941 84.7479C37.3828 84.3704 37.5716 83.9929 37.9491 83.6154C38.3266 83.2379 38.7041 83.0492 39.2703 83.0492" stroke="#231F1F" stroke-width="0.0787585"/>
<path d="M39.2703 83.0493L51.7277 82.8605L67.0163 82.6718" stroke="#231F1F" stroke-width="0.0787585"/>
<path d="M67.0163 82.6718C68.1488 82.6718 69.0925 83.238 69.8475 84.1817" stroke="#231F1F" stroke-width="0.0787585"/>
<path d="M69.8475 84.1818L79.8512 98.5266" stroke="#231F1F" stroke-width="0.0787585"/>
<path d="M79.8512 98.5266C80.4175 99.2816 80.6062 100.414 80.4175 101.358" stroke="#231F1F" stroke-width="0.0787585"/>
<path d="M80.4175 101.358L80.2287 102.49" stroke="#231F1F" stroke-width="0.0787585"/>
<path d="M73.6225 22.6498C72.3013 22.0836 72.6788 24.726 72.6788 25.2923C72.8675 26.8023 73.4338 28.1235 74 29.256C74.3775 30.011 75.3213 31.3322 76.265 31.1435C76.4538 31.1435 76.8313 31.1435 76.8313 31.521C77.5862 36.2397 81.1725 40.5809 86.0799 41.5246C86.4574 41.5246 86.2687 42.4684 85.7024 42.2796C80.6062 41.3359 76.8313 36.8059 76.0763 31.7097C76.265 31.7097 76.265 31.8985 76.4538 31.8985C75.3213 32.276 74.3775 31.3322 73.8113 30.5772C72.6788 29.0672 72.1125 27.1798 71.735 25.2923C71.735 23.971 71.9238 21.1398 74 21.7061C74.3775 21.8948 74.1888 22.6498 73.6225 22.6498Z" fill="#1D1819"/>
<path d="M91.3649 41.5246C92.4974 41.3359 93.6299 40.5809 94.3848 39.8259C97.0273 37.5609 98.1598 34.1634 98.9148 30.766C98.9148 30.5772 99.1036 30.3885 99.2923 30.3885C100.614 30.5772 101.369 27.746 101.557 26.8022C101.746 25.6697 101.935 24.5373 102.124 23.5935C102.124 22.6498 102.124 21.1398 100.802 21.706C100.236 21.8948 100.047 21.1398 100.614 20.951C103.634 19.6298 102.879 24.5373 102.501 26.0472C102.312 27.746 101.935 29.6335 100.802 30.5772C100.425 30.9547 99.8585 31.3322 99.2923 31.3322C99.4811 31.1434 99.4811 31.1434 99.6698 30.9547C99.1036 34.5409 97.7823 38.1271 94.9511 40.3921C94.0074 41.3359 92.8749 42.0909 91.5536 42.2796C90.9874 42.4683 90.7986 41.5246 91.3649 41.5246Z" fill="#1D1819"/>
<path d="M80.2287 38.6934C80.2287 40.5808 80.2287 42.6571 79.6625 44.5446C79.4737 45.677 79.0962 46.8095 78.1525 47.7533C77.5862 48.3195 76.6425 48.5083 75.8875 48.8858C74.755 49.452 73.6225 50.0183 72.6788 50.5845C72.1125 50.7733 71.735 50.207 72.1125 49.8295C73.0563 49.452 74 48.8858 74.9437 48.5083C75.6987 48.1308 76.6425 47.7533 77.3975 47.187C78.1525 46.8095 78.53 45.4883 78.7187 44.5446C79.0962 43.4121 79.285 42.0908 79.285 40.7696C79.4737 40.0146 79.4737 39.4484 79.4737 38.6934C79.4737 38.1271 80.2287 38.1271 80.2287 38.6934Z" fill="#1D1819"/>
<path d="M42.4791 98.3379C46.0653 98.3379 49.6515 98.1491 53.4265 98.1491C54.1815 97.9604 54.9365 97.9604 55.6914 98.5266C56.8239 99.2816 56.2577 100.98 54.9365 101.358C53.2377 101.735 51.539 101.924 49.8402 102.113C48.1415 102.49 46.254 102.868 44.3665 103.057C43.8003 103.245 43.6116 102.302 44.1778 102.302C47.3865 101.735 50.784 101.169 54.1815 100.603C54.3702 100.603 54.559 100.414 54.7477 100.414C55.3139 100.414 55.8802 99.6591 55.1252 99.2816C54.7477 98.7154 53.804 98.9041 53.2377 98.9041C51.1615 98.9041 49.274 99.0929 47.1978 99.0929C45.6878 99.0929 43.9891 99.2816 42.4791 99.2816C41.9128 99.2816 41.9128 98.3379 42.4791 98.3379Z" fill="#1D1819"/>
<path d="M44.9328 105.51C46.6315 105.322 48.3303 105.133 50.2178 104.755C50.784 104.755 51.539 104.378 52.294 104.189C53.4265 103.812 54.559 103.245 55.6915 102.868C55.8802 102.868 56.2577 102.679 56.6352 102.49C57.0127 102.302 57.3902 101.924 57.3902 101.358C57.2014 100.603 56.2577 100.98 55.6915 100.98C55.1252 101.169 54.7477 100.225 55.314 100.225C56.2577 100.037 57.3902 99.8478 57.9564 100.792C58.5227 101.547 58.1452 102.49 57.3902 103.057C57.0127 103.245 56.6352 103.434 56.2577 103.623C55.6915 103.812 55.1252 104 54.559 104.189C53.4265 104.567 52.4827 104.944 51.3502 105.322C50.4065 105.699 49.4628 105.699 48.519 105.888C47.1978 106.077 46.0653 106.265 44.9328 106.265C44.3666 106.454 44.3666 105.51 44.9328 105.51Z" fill="#1D1819"/>
<path d="M56.6351 103.245C56.8239 104.755 55.1252 105.322 53.9927 105.888C52.4827 106.643 51.1614 107.209 49.6515 107.964C48.7077 108.342 47.764 108.719 46.8202 109.285C45.8765 109.474 44.9328 109.285 44.1778 108.908C43.4228 108.53 43.0453 107.775 42.479 107.209C42.1015 106.643 41.5353 106.265 41.1578 105.888C40.969 105.699 40.969 105.322 40.7803 105.133C40.5915 104.567 40.969 103.812 40.4028 103.434C40.0253 103.057 39.6478 102.868 39.4591 102.49C39.2703 101.924 39.4591 101.358 39.4591 100.98C39.4591 100.037 39.0816 99.2816 38.8928 98.5266C38.5153 97.0166 38.3266 94.9404 39.8365 94.1854C41.724 93.2416 44.5553 93.4304 46.254 94.1854C47.5752 94.7516 47.5752 96.2616 46.6315 97.2053C45.8765 97.5828 45.1215 97.7716 44.3665 97.7716C43.6115 97.9603 42.8565 98.1491 42.1015 98.1491C41.724 98.3378 41.3465 97.3941 41.9128 97.3941C42.8565 97.2053 43.989 97.0166 44.9328 96.8278C45.499 96.8278 46.254 96.4503 46.4427 95.6954C46.4427 95.3179 46.4427 95.3179 46.0652 95.1291C45.499 94.7516 44.3665 94.5629 43.4228 94.5629C42.479 94.3741 41.1578 94.3741 40.214 94.9404C38.8928 95.5066 39.6478 97.7716 40.0253 98.9041C40.214 99.6591 40.4028 100.225 40.214 100.98C40.214 101.547 40.214 101.924 40.5915 102.302C40.7803 102.679 41.3465 102.868 41.5353 103.245C41.724 103.623 41.5353 104.189 41.5353 104.567C41.5353 104.755 41.724 104.944 41.724 105.133C41.724 105.133 41.9128 105.322 41.724 105.322C42.1015 105.699 42.479 106.077 42.8565 106.454C43.4228 106.832 43.6115 107.398 44.1778 107.775C44.744 108.342 45.6877 108.719 46.4427 108.342C47.1977 108.153 47.9527 107.775 48.7077 107.398C50.2177 106.832 51.5389 106.077 52.8602 105.51C53.8039 104.944 55.8802 104.378 55.6914 103.245C55.6914 102.679 56.4464 102.679 56.6351 103.245Z" fill="#1D1819"/>
<path d="M43.4228 97.3941C43.6115 97.7716 43.989 98.1491 44.1778 98.3378C44.1778 98.5266 44.1778 98.5266 44.1778 98.5266C44.3665 98.7153 44.3665 98.7153 44.3665 98.9041C44.1778 98.9041 44.1778 99.0928 44.1778 99.0928C43.989 99.2816 43.8003 99.2816 43.8003 99.2816C43.6115 99.0928 43.6115 99.0928 43.4228 98.9041C43.234 98.7153 43.0453 98.3378 42.8565 97.9603L42.6678 97.7716C42.6678 97.7716 42.6678 97.5828 42.6678 97.3941C42.6678 97.3941 42.6678 97.2053 42.8565 97.2053C42.8565 97.2053 43.0453 97.2053 43.234 97.2053C43.234 97.2053 43.4228 97.2053 43.4228 97.3941Z" fill="#1D1819"/>
<path d="M117.79 95.5067C117.035 95.1292 116.28 94.7517 115.525 94.5629C114.392 94.3742 113.26 93.9967 112.316 93.8079C111.372 93.8079 110.24 93.4305 109.296 93.6192C108.541 93.8079 108.73 94.7517 108.918 95.3179C109.107 95.6954 108.73 95.8842 108.352 95.8842C107.786 95.6954 107.22 95.5067 106.653 95.3179C106.276 95.1292 105.898 94.9404 105.332 94.7517C104.766 94.5629 104.577 94.7517 104.2 94.9404C103.822 95.1292 103.822 95.1292 103.256 95.1292C102.879 95.1292 102.69 95.3179 102.501 95.6954V95.8842C102.501 96.0729 102.501 95.6954 102.501 95.8842C102.69 96.0729 102.879 96.2617 103.067 96.6392C103.256 96.8279 103.256 97.2054 102.879 97.2054C102.69 97.3942 102.69 97.7717 102.69 97.5829C102.69 97.7717 102.69 97.9604 102.879 97.9604C103.067 98.5267 103.445 99.0929 103.822 99.6591C104.955 101.358 106.653 102.868 108.73 103.623C109.296 103.812 109.862 104 110.428 104C111.183 104.189 111.75 104 112.505 103.623C112.882 103.245 113.637 103.057 114.015 102.868C114.392 102.679 114.581 102.679 114.77 102.49C114.958 102.302 114.958 102.113 115.147 101.924C115.336 101.735 115.336 101.547 115.525 101.547C116.468 101.169 117.412 100.603 117.412 99.4704C117.412 99.2816 117.601 99.0929 117.79 99.0929C118.545 98.9042 119.111 97.9604 119.3 97.2054C119.488 96.0729 119.111 94.7517 118.922 93.6192C118.733 92.6755 118.545 91.9205 118.356 91.1655C118.356 90.5992 118.167 89.8442 117.978 89.4667C117.79 88.9005 117.412 88.7117 116.846 88.7117C116.28 88.7117 115.525 88.7117 115.147 89.278C114.77 89.6555 114.203 89.0892 114.581 88.7117C115.147 87.9567 116.468 87.768 117.412 87.9567C118.356 87.9567 118.733 88.7117 118.922 89.4667C119.3 90.5992 119.488 91.9205 119.677 93.053C119.866 94.5629 120.432 96.0729 120.055 97.5829C119.866 98.5267 119.111 99.6591 117.978 100.037C118.167 99.8479 118.167 99.6591 118.356 99.4704C118.167 100.98 116.846 101.924 115.713 102.302L115.902 102.113C115.713 103.434 114.203 103.812 113.071 104.189C113.071 104.189 113.071 104.189 112.882 104.189C112.693 104.378 112.693 104.378 112.505 104.567C112.127 104.755 111.75 104.944 111.183 104.944C110.24 104.944 109.107 104.567 108.163 104.378C105.521 103.245 103.256 100.98 102.124 98.5267C101.746 97.5829 101.557 96.8279 102.69 96.4504C102.69 96.6392 102.69 97.0167 102.501 97.2054C102.124 96.6392 101.746 96.2617 101.746 95.6954C101.935 94.5629 102.879 94.1854 103.822 94.3742C103.634 94.3742 103.634 94.3742 103.445 94.5629C104.011 93.6192 104.955 93.6192 105.898 93.9967C106.653 94.5629 107.597 94.7517 108.541 94.9404C108.541 95.1292 108.352 95.3179 108.163 95.5067C107.786 94.9404 107.786 93.9967 108.163 93.4305C108.73 92.4867 110.051 92.6755 111.183 92.8642C112.505 93.053 113.826 93.2417 115.147 93.6192C116.28 93.8079 117.223 94.1854 118.167 94.7517C118.545 95.1292 118.167 95.8842 117.79 95.5067Z" fill="#1D1819"/>
<path d="M114.203 103.245C114.77 104 115.525 104.755 116.091 105.322C116.657 105.888 117.412 106.454 118.167 107.02C119.866 108.342 122.697 107.775 124.585 106.643C126.472 105.322 127.793 103.057 127.416 100.792C127.227 99.2816 125.34 98.1491 124.018 97.3941C122.508 96.4504 120.998 96.0729 119.677 95.5066C119.111 95.3179 119.3 94.3742 119.866 94.5629C121.376 95.3179 122.886 95.6954 124.396 96.6391C125.906 97.3941 127.982 98.7154 128.36 100.603C128.737 102.868 127.605 105.322 125.906 106.643C124.018 108.342 120.998 109.285 118.733 108.342C117.601 107.775 116.846 107.02 115.902 106.265C115.147 105.51 114.203 104.755 113.637 103.623C113.26 103.245 114.015 102.679 114.203 103.245Z" fill="#1D1819"/>
<path d="M122.508 107.398C125.528 106.077 128.737 103.623 129.115 100.037C129.303 98.7154 129.115 97.2054 129.115 95.8842C128.36 89.6555 126.85 83.4268 125.34 77.3868C124.773 74.7444 124.207 72.2906 123.452 69.6481C123.075 67.9494 122.697 66.4394 121.753 64.9294C117.978 58.512 111.183 54.1708 104.766 51.1508C103.067 50.2071 101.18 49.8296 99.481 49.0746C98.9148 49.0746 98.5373 48.8858 98.1598 48.6971C97.4048 48.3196 96.8385 47.5646 96.4611 46.8096C95.3286 44.3559 95.3286 41.1472 95.7061 38.5047C95.7061 37.9384 96.6498 38.1272 96.4611 38.6934C96.4611 38.5047 96.4611 38.8822 96.4611 38.8822C96.4611 39.0709 96.4611 39.2597 96.4611 39.4484C96.4611 40.2034 96.2723 40.7697 96.2723 41.5247C96.4611 43.2234 96.4611 45.1109 97.4048 46.6209C97.5935 46.9984 97.971 47.7533 98.5373 47.9421C99.1035 48.3196 99.8585 48.3196 100.425 48.5083C101.935 49.0746 103.445 49.6408 104.955 50.3958C111.561 53.227 118.167 57.5683 122.131 63.797C123.075 65.4957 123.83 67.0057 124.207 68.8932C124.773 71.3469 125.528 73.8006 126.095 76.2543C127.605 82.483 129.115 88.7117 129.87 95.1292C130.058 96.8279 130.247 98.5266 129.87 100.225C129.492 104 126.095 106.643 122.886 108.153C122.32 108.342 121.942 107.587 122.508 107.398Z" fill="#1D1819"/>
<path d="M104.955 94.1854C105.332 92.8642 105.898 91.3542 106.276 90.2217C106.653 89.2779 107.22 88.9004 107.975 88.7117C108.541 88.7117 109.107 88.7117 109.485 88.7117C111.183 88.7117 113.071 88.7117 114.77 88.5229C115.902 88.5229 118.167 88.1454 117.978 90.0329C117.79 90.7879 117.412 91.5429 117.223 92.1092C116.846 92.8642 116.657 93.4304 116.28 94.1854C116.091 94.7516 115.336 94.5629 115.525 93.9966C116.091 92.6754 116.468 91.5429 116.846 90.2217C117.035 90.2217 117.035 89.8442 117.035 89.6554C117.035 89.4667 116.657 89.4667 116.468 89.4667C115.902 89.4667 115.525 89.4667 114.958 89.4667C113.26 89.4667 111.75 89.4667 110.051 89.6554C109.485 89.6554 108.918 89.6554 108.352 89.6554C107.786 89.6554 107.408 89.8442 107.22 90.4104C106.653 91.7317 106.276 93.0529 105.71 94.3741C105.521 94.7516 104.766 94.5629 104.955 94.1854Z" fill="#1D1819"/>
<path d="M106.087 94.1854C106.465 93.2417 106.653 92.4867 107.031 91.7317C107.408 90.7879 107.975 90.2217 108.918 90.2217C110.617 90.0329 112.505 90.0329 114.392 90.0329C114.958 89.8442 115.713 89.8442 116.28 89.8442C116.846 89.8442 116.846 90.5992 116.28 90.7879C114.77 90.7879 113.26 90.7879 111.75 90.9767C110.995 90.9767 110.051 90.9767 109.296 90.9767C108.541 90.9767 108.163 91.1654 107.786 91.9204C107.597 92.6754 107.22 93.4304 107.031 94.3741C106.842 94.7516 105.898 94.5629 106.087 94.1854Z" fill="#1D1819"/>
<path d="M115.147 98.3379C113.26 97.7717 111.372 97.2054 109.673 96.4504C109.107 96.2617 108.73 96.0729 108.352 95.8842C107.786 95.5067 108.352 94.7517 108.73 95.1292C109.107 95.3179 109.296 95.5067 109.673 95.5067C110.24 95.6954 110.806 96.0729 111.372 96.2617C112.505 96.6392 113.637 97.0167 114.77 97.2054C114.958 97.3942 115.147 97.3942 115.336 97.5829C115.902 97.5829 115.713 98.5267 115.147 98.3379Z" fill="#1D1819"/>
<path d="M104.2 94.9404C104.2 94.7516 104.2 94.9404 104.2 94.9404V95.1291C104.388 95.6954 104.766 96.2616 105.143 96.4504C105.898 97.2054 106.842 97.7716 107.597 98.3378C108.352 98.7153 109.107 98.9041 109.673 99.2816L109.862 99.4703C109.673 99.2816 109.862 99.4703 109.862 99.4703C110.24 99.4703 110.428 99.6591 110.806 99.6591C111.561 99.8478 112.127 100.037 112.882 100.225C113.26 100.414 113.071 101.169 112.505 101.169C111.938 100.98 111.372 100.792 110.806 100.603C110.24 100.414 109.673 100.414 109.296 100.037C108.541 99.6591 107.786 99.2816 107.031 98.9041C106.087 98.3378 105.143 97.7716 104.388 97.0166C104.011 96.4504 103.067 95.3179 103.445 94.5629C103.633 93.9966 104.388 94.3741 104.2 94.9404Z" fill="#1D1819"/>
<path d="M103.067 96.4504C103.445 96.6391 103.634 97.0166 103.822 97.3941C104.389 97.7716 104.955 98.3379 105.332 98.9041C105.898 99.4704 106.465 100.037 107.031 100.603C107.22 100.792 107.408 100.98 107.786 101.169C107.975 101.169 108.163 101.358 108.352 101.358C109.107 101.735 110.051 101.924 110.995 102.302C111.372 102.302 111.183 103.245 110.617 103.057C110.051 102.868 109.296 102.679 108.541 102.302C107.786 102.113 107.408 101.924 106.842 101.358C105.71 100.414 104.577 99.2816 103.634 98.1491C103.445 97.9604 103.067 97.7716 102.879 97.5829C102.879 97.3941 102.69 97.3941 102.69 97.2054C102.501 97.2054 102.69 97.2054 102.69 97.2054C102.124 97.0166 102.501 96.2616 103.067 96.4504Z" fill="#1D1819"/>
<path d="M72.6788 50.5845C68.9038 52.472 65.5064 54.9257 62.2976 57.757C60.0327 59.8332 57.7677 62.0982 56.2577 64.9294C55.314 66.6281 54.9365 68.5156 54.3702 70.4031C53.9927 72.2906 53.4265 74.3668 53.049 76.443C52.6715 78.5193 52.294 80.7843 51.9165 82.8605C51.9165 83.4267 51.1615 83.4267 51.1615 82.8605C51.3502 81.1618 51.7277 79.463 51.9165 77.5755C52.294 75.6881 52.8602 73.6118 53.2377 71.7243C53.804 69.6481 54.1815 67.5719 54.9365 65.6844C57.3902 60.0219 62.8639 55.6807 67.9601 52.472C69.2813 51.5283 70.7913 50.5845 72.1126 49.8295C72.6788 49.6408 73.0563 50.3958 72.6788 50.5845Z" fill="#1D1819"/>
<path d="M114.581 103.812C114.77 108.908 115.147 114.004 115.336 118.911L115.902 133.634H115.147V133.445C114.77 125.329 114.392 117.401 114.015 109.285C114.015 107.587 113.826 105.699 113.826 103.812C113.826 103.245 114.581 103.245 114.581 103.812ZM58.3339 133.634C58.9002 129.67 59.2777 125.895 59.6552 121.931C60.4102 115.703 61.1651 109.285 61.9201 103.057C61.9201 102.868 61.9201 102.868 61.9201 102.679C61.9201 102.113 62.8639 102.113 62.8639 102.679C62.2976 107.02 61.7314 111.361 61.3539 115.514C60.5989 121.554 59.8439 127.594 59.2777 133.634H58.3339Z" fill="#1D1819"/>
<path d="M72.3013 50.5845C71.9238 50.5845 71.9238 49.8295 72.3013 49.8295C72.8675 49.8295 72.8675 50.5845 72.3013 50.5845Z" fill="#1D1819"/>
<path d="M113.448 88.9005C113.826 82.2943 114.203 75.4994 114.581 68.7044C114.581 67.1944 114.77 65.4957 114.958 63.9857C114.958 63.4195 115.713 63.4195 115.713 63.9857C114.958 71.3469 114.77 78.8968 114.392 86.258C114.392 87.2018 114.392 88.1455 114.392 88.9005C114.392 89.4667 113.448 89.4667 113.448 88.9005Z" fill="#1D1819"/>
<path d="M118.545 90.9767C118.733 90.7879 118.545 90.9767 118.545 90.9767C118.733 90.7879 118.733 90.7879 118.733 90.7879C118.922 90.5992 119.111 90.4104 119.111 90.0329C119.677 89.278 120.055 88.3342 120.432 87.3905C121.942 84.1817 122.508 80.4068 122.697 76.8206C122.697 76.2543 123.641 76.2543 123.452 76.8206C123.452 80.5955 122.697 84.3705 121.376 87.768C120.81 89.0892 120.055 90.4104 119.3 91.5429C118.922 91.9204 118.356 91.3542 118.545 90.9767Z" fill="#1D1819"/>
<path d="M62.1089 64.3632C62.2977 69.6481 62.4864 74.9331 62.6751 80.4068C62.6751 81.1618 62.6751 81.9167 62.8639 82.6717C62.8639 83.238 61.9202 83.238 61.9202 82.6717C61.7314 77.3868 61.5427 71.9131 61.3539 66.6281C61.1652 65.8731 61.1652 65.1182 61.1652 64.3632C61.1652 63.7969 61.9202 63.7969 62.1089 64.3632Z" fill="#1D1819"/>
<path d="M47.009 108.53C47.009 108.53 47.1977 108.53 47.1977 108.719C47.3865 108.908 47.3865 108.908 47.5752 109.097C47.9527 109.663 48.3302 110.04 48.8965 110.606C50.029 111.55 51.3502 112.683 52.8602 113.249C54.5589 113.626 55.6914 113.06 56.6352 111.928C57.9564 110.795 58.9001 109.474 59.8439 107.964C60.4101 106.832 61.1651 105.699 61.7314 104.567C62.1089 104 62.8639 104.378 62.4864 104.944C60.9764 107.587 59.4664 110.418 57.2014 112.683C56.0689 113.815 54.9364 114.381 53.2377 114.193C51.5389 113.815 50.029 112.871 48.8965 111.739C47.9527 110.795 47.009 110.04 46.4427 109.097C46.0652 108.53 46.8202 108.153 47.009 108.53Z" fill="#1D1819"/>
<path d="M61.1652 114.193C60.5989 114.193 60.5989 113.438 61.1652 113.438C61.7314 113.438 61.7314 114.193 61.1652 114.193Z" fill="#1D1819"/>
<path d="M45.499 109.285C44.9328 109.285 44.9328 108.53 45.499 108.53C46.0653 108.53 46.0653 109.285 45.499 109.285Z" fill="#1D1819"/>
<path d="M58.7114 103.057C58.1452 103.057 58.1452 102.302 58.7114 102.302C59.2777 102.302 59.2777 103.057 58.7114 103.057Z" fill="#1D1819"/>
<path d="M77.02 47.9421C78.7187 55.3032 87.9674 57.5682 94.0073 54.1707C96.0836 53.0383 98.1598 50.962 98.7261 48.5083C98.9148 47.9421 99.6698 48.1308 99.481 48.697C99.1035 50.7733 97.5936 52.6608 96.0836 53.7933C93.8186 55.492 90.9874 56.4357 88.1562 56.6245C85.5137 56.6245 82.6825 55.8695 80.4175 54.3595C78.3412 52.8495 76.8313 50.7733 76.265 48.1308C76.0763 47.5646 77.02 47.3758 77.02 47.9421Z" fill="#1D1819"/>
<path d="M101.369 49.2634C100.614 51.5283 99.2923 53.2271 97.5936 54.7371C96.2723 55.6808 94.9511 56.8133 93.6298 57.3795C89.0999 59.267 83.2487 58.3233 79.285 55.492C77.02 53.7933 75.3213 51.7171 74.3775 49.0746C74.1888 48.6971 74.9438 48.3196 75.1325 48.8859C77.3975 54.7371 83.2487 57.757 89.4774 57.3795C90.9874 57.1908 92.6861 57.002 94.0073 56.247C94.7623 55.8695 95.3286 55.3033 95.8948 54.9258C97.9711 53.4158 99.6698 51.5283 100.614 49.0746C100.802 48.6971 101.557 48.8859 101.369 49.2634Z" fill="#1D1819"/>
<path d="M76.0763 15.2886C75.8875 18.4973 75.8875 21.8948 76.265 25.1035C76.265 25.8585 77.2088 28.3122 75.51 27.9347C74.5663 27.746 74.3775 26.4248 74.1888 25.6698C73.8113 24.3485 73.8113 22.8385 73.4338 21.3286C73.245 20.5736 72.6788 20.0073 71.9238 19.6298C71.5463 19.2523 71.1688 19.0636 70.7913 18.6861C70.4138 17.9311 70.7913 17.1761 70.7913 16.4211C70.7913 14.5336 70.7913 12.6461 71.5463 10.7587C71.9238 9.81491 72.49 8.87117 73.245 8.11618C73.8113 7.54993 74.755 7.17244 75.3213 6.60619C76.6425 5.66245 77.775 4.71871 78.9075 3.77497C81.9275 1.50999 85.1362 0 89.0999 0C91.7424 0 94.1961 0.754993 96.6498 1.69873C97.2161 1.88748 97.7823 2.07623 97.9711 2.45373C98.1598 2.64248 98.1598 3.01997 98.1598 3.20872C98.3486 3.77497 98.3486 4.15246 98.5373 4.52996C98.5373 4.71871 98.5373 4.90746 98.7261 4.90746C98.7261 5.28495 98.7261 5.0962 98.5373 5.0962C99.2923 6.03995 100.425 6.79494 101.18 7.73868C102.501 9.62616 103.634 11.7024 104.011 13.9674C104.389 15.2886 104.766 17.7423 103.445 18.6861C103.067 18.8748 102.501 18.8748 102.124 19.0636C101.18 19.6298 100.991 20.3848 100.991 21.1398C100.991 22.461 100.802 23.5935 100.802 24.726C100.614 25.481 100.425 26.4248 99.6698 26.991C99.1036 27.3685 98.5373 26.991 98.5373 26.4248C98.5373 25.1035 98.5373 23.7823 98.5373 22.461C98.5373 20.5736 98.3486 18.6861 98.3486 16.7986C98.3486 16.2324 98.3486 15.6661 98.3486 15.0999C98.3486 14.9111 98.3486 14.9111 98.3486 14.7224C98.1598 15.0999 98.5373 15.0999 98.3486 14.9111C98.1598 14.9111 97.9711 14.5336 97.7823 14.3449C97.2161 13.5899 96.6498 12.6461 96.6498 11.5136C96.8386 11.5136 97.0273 11.7024 97.2161 11.8911C94.3848 13.9674 90.7986 16.2324 87.0237 16.4211C86.0799 16.6098 83.6262 16.4211 84.5699 14.7224C84.9474 13.7786 86.0799 13.2124 87.0237 12.6461C87.4012 12.4574 87.7787 13.0236 87.4012 13.4011C84.0037 16.0436 79.8512 18.3086 75.6988 19.2523C75.1325 19.4411 74.9438 18.4973 75.51 18.4973C79.6625 17.5536 83.6262 15.2886 87.0237 12.6461C87.2124 12.8349 87.2124 13.2124 87.4012 13.4011C86.6462 13.7786 85.8912 14.3449 85.3249 14.9111C84.9474 15.6661 85.5137 15.6661 86.0799 15.6661C87.2124 15.6661 88.1562 15.4774 89.0999 15.2886C91.9311 14.3449 94.5736 12.8349 96.8386 11.1361C97.0273 10.9474 97.4048 11.1361 97.4048 11.5136C97.5936 12.6461 98.1598 13.4011 98.9148 14.3449C99.1036 14.5336 99.1036 14.7224 99.1036 15.0999C99.2923 16.2324 99.2923 17.3648 99.2923 18.4973C99.2923 20.1961 99.481 21.8948 99.481 23.5935C99.481 24.3485 99.481 24.9148 99.481 25.481C99.481 25.6698 99.481 26.0473 99.481 26.236C99.481 26.236 99.481 26.236 99.481 26.4248C99.2923 26.6135 99.2923 26.4248 99.2923 26.236C99.2923 26.236 99.481 26.0473 99.481 25.8585C99.8585 25.2923 99.8585 24.1598 100.047 23.4048C100.047 22.2723 99.8585 20.7623 100.425 19.8186C100.802 18.8748 101.557 18.4973 102.312 18.1198C103.067 17.9311 103.445 17.5536 103.445 16.7986C103.634 12.6461 101.369 9.05992 98.5373 6.22869C98.3486 6.03995 98.1598 5.8512 97.9711 5.66245C97.7823 5.28495 97.5936 4.52996 97.5936 4.15246C97.4048 3.77497 97.4048 3.39747 97.2161 3.20872C97.0273 2.64248 97.0273 2.83122 96.2723 2.45373C95.1398 2.07623 93.8186 1.50999 92.4974 1.32124C88.7224 0.377497 84.9474 0.943742 81.55 3.01997C79.285 4.34121 77.3975 6.41744 75.1325 7.73868C73.245 9.05992 72.1125 10.5699 71.9238 12.8349C71.5463 14.3449 71.7351 15.8549 71.5463 17.3648C71.5463 18.1198 71.7351 18.3086 72.3013 18.6861C72.6788 19.0636 73.0563 19.4411 73.4338 19.8186C74.1888 20.7623 74.3775 21.8948 74.5663 23.0273C74.5663 24.3485 74.755 25.8585 75.51 26.8023C75.6988 27.1798 75.51 26.991 75.6988 26.991C75.6988 26.991 75.6988 27.1798 75.6988 26.8023C75.51 26.6135 75.51 26.4248 75.51 26.236C74.9438 22.8385 75.1325 19.4411 75.1325 16.0436C75.1325 15.6661 75.1325 15.4774 75.1325 15.2886C75.3213 14.7224 76.0763 14.7224 76.0763 15.2886Z" fill="#1D1819"/>
<path d="M36.4391 84.9367C37.1941 83.993 37.7603 82.8605 39.0815 82.6718C39.459 82.6718 39.6478 82.6718 39.8365 82.6718C41.5353 82.6718 43.0453 82.6718 44.5552 82.6718C49.4627 82.483 54.3702 82.483 59.2776 82.2943C61.1651 82.2943 63.0526 82.2943 64.9401 82.2943C66.0725 82.2943 67.205 82.1055 68.1488 82.483C69.6588 83.0493 70.4138 84.3705 71.3575 85.6917C72.6787 87.5792 74 89.4667 75.3212 91.1654C76.6425 93.2417 77.9637 95.1291 79.4737 97.2054C79.6624 97.5829 80.0399 97.9604 80.2287 98.3379C81.1724 99.6591 80.7949 100.98 80.4174 102.49C80.4174 103.057 79.4737 102.868 79.6624 102.302C80.0399 100.98 80.2287 99.8479 79.4737 98.7154C79.2849 98.3379 78.9074 97.9604 78.7187 97.7716C77.5862 96.0729 76.4537 94.5629 75.3212 92.8642C73.4337 90.0329 71.5462 87.013 69.2813 84.3705C68.3375 83.0493 67.0163 83.0493 65.5063 83.238C63.8076 83.238 62.1088 83.238 60.4101 83.238C55.6914 83.238 51.1614 83.4267 46.4427 83.4267C44.5552 83.4267 42.479 83.4267 40.5915 83.6155C40.214 83.6155 39.6478 83.6155 39.2703 83.6155C38.1378 83.6155 37.7603 84.748 37.0053 85.503C36.6278 85.8805 36.0616 85.3142 36.4391 84.9367Z" fill="#1D1819"/>
<path d="M17.1868 25.8585H38.8929C40.0253 25.8585 40.7803 26.6135 40.7803 27.746V42.4684C40.7803 43.4121 40.0253 44.3559 38.8929 44.3559H26.4355L23.793 47.9421C23.6042 48.3196 23.2267 48.3196 23.038 47.9421L20.3955 44.3559H17.1868C16.0543 44.3559 15.2993 43.4121 15.2993 42.4684V27.746C15.2993 26.6135 16.0543 25.8585 17.1868 25.8585Z" fill="#FEFEFE" stroke="#332C2B" stroke-width="0.352514"/>
<path d="M19.2631 29.6335H30.9655" stroke="#332C2B" stroke-width="0.352514" stroke-linecap="round"/>
<path d="M19.2631 33.2197H30.9655" stroke="#332C2B" stroke-width="0.352514" stroke-linecap="round"/>
<path d="M19.2631 36.806H30.9655" stroke="#332C2B" stroke-width="0.352514" stroke-linecap="round"/>
<path d="M54.559 20.3848H32.8529C31.7204 20.3848 30.9655 21.1398 30.9655 22.2723V36.9947C30.9655 37.9384 31.7204 38.8822 32.8529 38.8822H45.3103L47.9528 42.4684C48.1416 42.8459 48.519 42.8459 48.7078 42.4684L51.3503 38.8822H54.559C55.6915 38.8822 56.4465 37.9384 56.4465 36.9947V22.2723C56.4465 21.1398 55.6915 20.3848 54.559 20.3848Z" fill="#EC2029" stroke="#332C2B" stroke-width="0.352514"/>
<path d="M34.3629 23.9711H51.9165" stroke="#332C2B" stroke-width="0.352514" stroke-linecap="round"/>
<path d="M34.3629 27.5573H51.9165" stroke="#332C2B" stroke-width="0.352514" stroke-linecap="round"/>
<path d="M34.3629 31.1435H51.9165" stroke="#332C2B" stroke-width="0.352514" stroke-linecap="round"/>
<path d="M34.3629 34.7297H51.9165" stroke="#332C2B" stroke-width="0.352514" stroke-linecap="round"/>
</svg>
