<svg width="24" height="22" viewBox="0 0 24 22" fill="none" xmlns="http://www.w3.org/2000/svg">
<g clip-path="url(#clip0_207_159)">
<path d="M0.799792 21.5682C0.343454 21.3318 -0.0160849 21.1248 0.000816474 21.108C0.0591007 21.05 2.24266 20.5867 3.76747 20.3088C7.06704 19.7074 10.99 19.226 14.8975 18.9431C16.5067 18.8266 22.3285 18.8227 23.3382 18.9375L24.0002 19.0128L23.254 19.0243C21.9293 19.0447 18.8915 19.2561 16.5112 19.4934C12.0058 19.9426 6.99718 20.7708 3.37372 21.6657C2.63365 21.8484 1.93854 21.9978 1.82883 21.9978C1.71923 21.9978 1.25613 21.8045 0.799792 21.5682ZM7.09869 17.0591C7.03098 16.8732 7.31421 16.7899 7.43774 16.7371C7.99242 16.5006 8.38279 16.1152 8.51339 15.675C8.57587 15.4643 8.7663 14.2737 8.93644 13.0292C9.10658 11.7846 9.25951 10.822 9.27621 10.7655C9.2886 10.7237 9.3221 10.5752 9.50166 10.5593C9.95994 10.5549 10.3002 10.5607 10.7699 10.5607C11.0293 10.5359 10.9783 10.8182 10.9579 10.9991C10.9376 11.2274 10.8758 11.6684 10.8037 12.2063C10.7159 12.8625 10.5847 13.8433 10.5121 14.3857C10.3489 15.605 10.2584 15.9804 9.97633 16.6084C9.64056 17.3557 9.12737 17.7899 8.19708 18.0988C8.00921 18.1574 7.47042 18.3396 7.41183 18.1777C7.29024 17.79 7.20389 17.4531 7.09869 17.0591ZM17.782 16.6503C17.1621 16.4015 17.1913 15.4404 17.8416 15.0461C18.2532 14.7966 18.8314 14.839 19.1286 15.1344C19.8607 15.8625 18.7841 17.0523 17.782 16.6503ZM13.0961 16.0762C11.2734 15.7666 11.2856 13.6057 11.6939 12.3709C12.2053 10.9416 13.4513 10.5264 14.4754 10.4901C15.3396 10.4607 16.5378 10.6205 16.8385 10.8053C16.9217 10.8564 16.8826 11.3518 16.6505 13.1887C16.4894 14.4641 16.3132 15.5608 16.2589 15.6258C15.9704 15.9716 14.0369 16.2469 13.0961 16.0762ZM14.6862 14.3661C14.8818 13.6422 14.9644 12.9887 15.1043 12.2251C15.0869 11.962 14.6402 11.9601 14.5265 11.9595C13.9347 11.9595 13.5852 12.2898 13.3999 13.0242C13.1459 14.0314 13.4112 14.5925 14.1416 14.5925C14.3724 14.5712 14.6134 14.5839 14.6862 14.3661ZM1.36491 15.4931C1.86315 14.2829 3.86427 9.94937 4.34458 9.05195C4.43534 8.82818 4.67441 8.78408 4.8381 8.76839C5.30878 8.74701 5.71564 8.75271 6.12896 8.75566C6.55487 8.75943 6.56112 8.90803 6.61592 9.22276C6.68292 9.53636 7.51385 14.4692 7.70192 15.6534C7.72589 15.85 7.77434 15.9112 7.51692 15.9116C7.16025 15.9126 6.30176 15.9587 6.01044 15.9368C5.91733 15.9248 5.85669 15.8641 5.84225 15.7958C5.81562 15.6688 5.7856 15.4508 5.76512 15.2235L5.71206 14.6336H4.64286H3.57357L3.33982 15.2008C3.25664 15.4025 3.16578 15.6015 3.09808 15.7336C3.05065 15.8547 2.97997 15.9106 2.87416 15.9335C2.61244 15.9312 1.68481 15.9655 1.33603 15.9349C1.16353 15.8561 1.31954 15.6033 1.36491 15.4931ZM5.52358 12.9912C5.49326 12.6725 5.2887 11.0289 5.24066 10.786C5.22806 10.7599 5.22212 10.7685 5.20911 10.7838C5.08281 10.9724 4.39928 12.6406 4.28292 13.028C4.26888 13.0814 4.30381 13.1011 4.35462 13.0967C4.52804 13.0849 5.23667 13.0717 5.45219 13.0635C5.51365 13.0588 5.51969 13.0374 5.52358 12.9912ZM17.8643 13.7903C17.8919 13.5753 17.9525 12.9922 17.9989 12.4943C18.0453 11.9965 18.1195 11.219 18.1639 10.7664C18.1976 10.423 18.2273 10.0896 18.2401 9.91423C18.266 9.75697 18.4573 9.73843 18.5828 9.73721C19.0017 9.74159 19.3961 9.71694 19.7728 9.75147C19.9508 9.7696 20.0252 9.80871 20.0259 9.91402C19.8561 10.7804 19.2457 13.7696 19.1988 13.9548C19.1582 14.1144 19.1418 14.1615 18.8968 14.1753C18.5966 14.1705 18.3462 14.1861 18.0417 14.1846C17.867 14.1823 17.8203 14.1314 17.8643 13.7903ZM9.41265 9.34926C9.41265 8.82115 9.75436 8.41864 10.1823 8.24926C10.5521 8.12041 10.9666 8.12092 11.1872 8.37158C11.5788 8.82421 11.3218 9.49297 10.8644 9.8414C10.2783 10.2423 9.42217 10.0054 9.41265 9.34926ZM19.9126 8.23622C19.7847 7.95338 19.374 7.06105 19.0001 6.25327C18.6263 5.44548 18.3401 4.73343 18.3642 4.67079C18.3884 4.60826 18.8051 4.0935 19.2903 3.5271L20.08 2.60493C20.1316 2.5429 20.1909 2.46682 20.2625 2.4659C20.7385 2.46825 21.2316 2.49656 21.6858 2.49208C22.0241 2.48923 22.1943 2.46743 21.9433 2.72064C21.7827 2.91843 21.466 3.28052 21.1039 3.67784C20.5805 4.25198 20.1523 4.7371 20.1523 4.75594C20.1523 4.77468 20.5447 5.63207 21.0244 6.66128C21.4014 7.46989 21.7127 8.19314 21.8176 8.49523C21.8624 8.59779 21.8231 8.68559 21.7272 8.70953C21.6003 8.73886 21.3718 8.75047 20.9788 8.75047H20.3903C20.2465 8.76544 20.1407 8.74039 20.0854 8.61806L19.9126 8.23622ZM2.29787 7.63417C1.76819 7.3717 1.51785 7.03956 1.47216 6.53896C1.44481 6.2389 1.93854 2.20547 2.15713 0.922951C2.2105 0.621775 2.23365 0.604562 2.52404 0.604562H3.09541C3.39554 0.604562 3.66873 0.599571 3.84061 0.609247C4.07539 0.61271 4.03247 0.759784 4.01454 0.935988C3.97418 1.32924 3.8484 2.18123 3.69055 3.27827C3.41039 5.22466 3.3391 5.91145 3.40609 6.01738C3.48456 6.14102 3.68368 6.1614 5.00333 6.18105L6.18376 6.19867C6.46484 6.18309 6.52302 6.25174 6.49526 6.5027C6.42642 6.91826 6.38873 7.24927 6.3202 7.62154C6.27318 7.85387 6.1224 7.79306 5.88753 7.80732L4.50755 7.82637C2.73802 7.84847 2.7286 7.84755 2.29787 7.63417ZM15.9092 7.78369C15.8913 7.74977 15.9407 7.27769 16.0189 6.73462C16.0971 6.19154 16.2605 5.02514 16.3819 4.14269C16.7267 1.63744 16.8398 0.882617 16.8879 0.593867C16.9386 0.25684 16.9389 0.275478 17.271 0.275478H17.7976C18.0031 0.275478 18.1635 0.27283 18.2873 0.276802C18.7603 0.29208 18.7 0.251543 18.5807 0.979784C18.5356 1.25499 18.3855 2.46621 18.247 3.48442C17.8983 6.04865 17.6695 7.62093 17.6277 7.74254C17.5883 7.85652 15.968 7.89532 15.9092 7.78369ZM6.91206 7.58854C7.13167 5.75613 7.34146 4.37053 7.58545 2.66533C7.60368 2.46122 7.80548 2.43759 8.04128 2.43728C8.30945 2.43708 8.58202 2.43352 8.83738 2.44197C9.33203 2.4436 9.46212 2.5095 9.4108 2.83858C9.1917 4.43939 8.92087 5.86806 8.63641 7.49565C8.58325 7.77127 8.51841 7.76312 8.25352 7.76312C7.94519 7.76414 7.398 7.77442 7.11846 7.76668C6.95487 7.73796 6.91769 7.71952 6.91206 7.58854ZM10.4034 3.48636C10.5391 2.77777 10.6331 2.66716 10.8302 2.53873C11.0735 2.38035 12.8704 2.21525 13.4907 2.29428C13.5774 2.30661 13.6598 2.32209 13.7383 2.34073C15.5558 2.76993 15.2733 4.81624 15.1551 5.75765C15.0306 6.65701 14.9084 7.4762 14.8835 7.57795C14.8401 7.75517 14.8014 7.76312 13.9783 7.76312C13.7018 7.76312 13.5573 7.75364 13.3999 7.73898C13.1457 7.72248 13.1221 7.66564 13.1476 7.4818C13.2401 6.73044 13.3651 6.08246 13.4582 5.3806C13.5836 4.42278 13.5502 3.47719 12.355 3.68049C12.1502 3.73213 12.0941 3.74852 12.0659 3.95162C11.9167 4.89772 11.7857 5.87509 11.6493 6.80052C11.6193 7.02133 11.5775 7.25213 11.5345 7.45675C11.5234 7.50879 11.5173 7.55544 11.5078 7.58997C11.4956 7.63081 11.4673 7.67318 11.4403 7.63122C11.2482 7.2834 10.3446 7.34135 9.96752 7.59659C9.77833 7.72737 9.73941 7.79764 9.81664 7.3991C9.83027 7.31456 9.84348 7.23013 9.85639 7.14579C10.0435 5.92489 10.1696 4.72386 10.4034 3.48636ZM7.8233 1.38933C7.6214 0.704682 8.22248 0.0279784 8.89557 0.00445062C9.80773 -0.0561512 10.0595 1.19123 9.12635 1.75702C8.58591 2.00289 8.01782 1.95074 7.8233 1.38933Z" fill="#E9232A"/>
</g>
<defs>
<clipPath id="clip0_207_159">
<rect width="24" height="22" fill="white"/>
</clipPath>
</defs>
</svg>
