<svg width="24" height="24" viewBox="0 0 24 24" fill="none" xmlns="http://www.w3.org/2000/svg">
<g clip-path="url(#clip0_207_56)">
<path d="M11.9992 0C18.624 0 23.9944 5.37034 23.9944 11.9952C23.9944 18.62 18.624 23.9903 11.9992 23.9903C5.37443 23.9903 0.00390625 18.62 0.00390625 11.9952C0.00390625 5.37034 5.37443 0 11.9992 0Z" fill="#00AED6"/>
<path fill-rule="evenodd" clip-rule="evenodd" d="M18.9964 11.6253C18.905 10.0987 17.6053 8.9282 16.0776 8.99632H8.50057C8.22453 8.99632 8.00081 8.77267 8.00081 8.49654C8.00081 8.22059 8.22453 7.99677 8.50057 7.99677H16.1775C16.1327 6.96212 15.4264 6.07413 14.4282 5.79765C12.1902 5.39797 9.89905 5.39797 7.66088 5.79765C6.38902 6.11027 5.43747 7.16873 5.26188 8.46665C4.91205 10.8194 4.91205 13.2109 5.26188 15.5638C5.52971 16.9371 6.62095 18.0004 8.00081 18.2326C10.7753 18.5826 13.5828 18.5826 16.3575 18.2326C17.5934 17.9822 18.5289 16.9661 18.6765 15.7136C18.9304 14.3663 19.0375 12.9957 18.9964 11.6253ZM16.4973 13.3047V13.7443C16.4973 14.0205 16.2736 14.2443 15.9976 14.2443C15.7215 14.2443 15.4978 14.0205 15.4978 13.7443V13.3047C15.3363 13.1638 15.2449 12.9591 15.2479 12.7448C15.2479 12.3309 15.5835 11.9951 15.9976 11.9951C16.4116 11.9951 16.7474 12.3309 16.7474 12.7448C16.745 12.958 16.6546 13.1606 16.4973 13.3047Z" fill="white"/>
</g>
<defs>
<clipPath id="clip0_207_56">
<rect width="24" height="24" fill="white"/>
</clipPath>
</defs>
</svg>
