<svg width="77" height="25" viewBox="0 0 77 25" fill="none" xmlns="http://www.w3.org/2000/svg">
<g clip-path="url(#clip0_1_2)">
<path fill-rule="evenodd" clip-rule="evenodd" d="M21.19 20.74C18.819 22.9938 15.661 24.2319 12.39 24.19C9.1027 24.2396 5.92639 23.0014 3.54 20.74C2.41717 19.6512 1.52446 18.3479 0.914827 16.9076C0.305196 15.4672 -0.00893765 13.9191 -0.00893765 12.355C-0.00893765 10.7909 0.305196 9.2428 0.914827 7.80244C1.52446 6.36208 2.41717 5.05883 3.54 3.97C5.92335 1.69518 9.10568 0.448828 12.4 0.5C15.671 0.458148 18.829 1.69619 21.2 3.95C22.3241 5.03811 23.2179 6.34113 23.8283 7.78159C24.4387 9.22205 24.7533 10.7705 24.7533 12.335C24.7533 13.8995 24.4387 15.448 23.8283 16.8884C23.2179 18.3289 22.3241 19.6319 21.2 20.72M12.4 4.36C11.3559 4.34991 10.3205 4.55145 9.35646 4.95248C8.39237 5.35351 7.51952 5.9457 6.79059 6.69332C6.06166 7.44095 5.49175 8.3285 5.11525 9.30243C4.73876 10.2764 4.56348 11.3165 4.6 12.36C4.6 13.3817 4.80124 14.3934 5.19222 15.3373C5.5832 16.2812 6.15627 17.1389 6.87871 17.8613C7.60115 18.5837 8.45881 19.1568 9.40272 19.5478C10.3466 19.9388 11.3583 20.14 12.38 20.14C13.4017 20.14 14.4134 19.9388 15.3573 19.5478C16.3012 19.1568 17.1589 18.5837 17.8813 17.8613C18.6037 17.1389 19.1768 16.2812 19.5678 15.3373C19.9588 14.3934 20.16 13.3817 20.16 12.36C20.1964 11.3199 20.0223 10.2831 19.6483 9.31185C19.2742 8.34061 18.7079 7.45491 17.9832 6.70785C17.2586 5.96079 16.3906 5.36776 15.4312 4.96432C14.4718 4.56087 13.4408 4.35533 12.4 4.36M50.4 3.29L40.89 24.5L40.35 24.4C37.63 23.91 37.08 23.23 35.81 20.47L28.68 4.94H26V1.17H36.13V4.94H33.71L39.44 17.79L45 4.94H42V1.17H50.4V3.29ZM73.4 20.74C70.9983 22.958 67.8492 24.1897 64.58 24.1897C61.3108 24.1897 58.1617 22.958 55.76 20.74C54.6372 19.6512 53.7445 18.3479 53.1348 16.9076C52.5252 15.4672 52.2111 13.9191 52.2111 12.355C52.2111 10.7909 52.5252 9.2428 53.1348 7.80244C53.7445 6.36208 54.6372 5.05883 55.76 3.97C58.1617 1.75199 61.3108 0.520267 64.58 0.520267C67.8492 0.520267 70.9983 1.75199 73.4 3.97C74.5266 5.05667 75.4226 6.35922 76.0346 7.79987C76.6467 9.24053 76.9621 10.7897 76.9621 12.355C76.9621 13.9203 76.6467 15.4695 76.0346 16.9101C75.4226 18.3508 74.5266 19.6533 73.4 20.74ZM64.65 4.36C63.6054 4.34996 62.5697 4.55147 61.605 4.95239C60.6404 5.3533 59.767 5.94533 59.0372 6.6928C58.3075 7.44027 57.7367 8.32772 57.359 9.30169C56.9814 10.2757 56.8049 11.316 56.84 12.36C56.84 13.3817 57.0412 14.3934 57.4322 15.3373C57.8232 16.2812 58.3963 17.1389 59.1187 17.8613C59.8411 18.5837 60.6988 19.1568 61.6427 19.5478C62.5866 19.9388 63.5983 20.14 64.62 20.14C65.6417 20.14 66.6534 19.9388 67.5973 19.5478C68.5412 19.1568 69.3988 18.5837 70.1213 17.8613C70.8437 17.1389 71.4168 16.2812 71.8078 15.3373C72.1988 14.3934 72.4 13.3817 72.4 12.36C72.4377 11.3203 72.265 10.2838 71.892 9.3126C71.5191 8.3414 70.9538 7.45559 70.2299 6.70838C69.506 5.96117 68.6386 5.36797 67.6797 4.96442C66.7209 4.56086 65.6903 4.35527 64.65 4.36" fill="#4B2489"/>
</g>
<defs>
<clipPath id="clip0_1_2">
<rect width="77" height="24" fill="white" transform="translate(0 0.5)"/>
</clipPath>
</defs>
</svg>
