<svg width="20" height="20" viewBox="0 0 20 20" fill="none" xmlns="http://www.w3.org/2000/svg">
<path d="M7.49996 13.475L4.60829 10.5833C4.45248 10.4275 4.24115 10.34 4.02079 10.34C3.80044 10.34 3.58911 10.4275 3.43329 10.5833C3.27748 10.7392 3.18994 10.9505 3.18994 11.1708C3.18994 11.2799 3.21143 11.388 3.25319 11.4888C3.29494 11.5896 3.35614 11.6812 3.43329 11.7583L6.91663 15.2417C7.24163 15.5667 7.76663 15.5667 8.09163 15.2417L16.9083 6.425C17.0641 6.26919 17.1516 6.05786 17.1516 5.8375C17.1516 5.61715 17.0641 5.40582 16.9083 5.25C16.7525 5.09419 16.5411 5.00665 16.3208 5.00665C16.1004 5.00665 15.8891 5.09419 15.7333 5.25L7.49996 13.475Z" fill="#EC2028"/>
</svg>
