<svg width="20" height="20" viewBox="0 0 20 20" fill="none" xmlns="http://www.w3.org/2000/svg">
<path d="M19.1668 8.33334C19.1668 7.89132 18.9912 7.46739 18.6787 7.15483C18.3661 6.84227 17.9422 6.66668 17.5002 6.66668H12.2335L13.0335 2.85834C13.0502 2.77501 13.0585 2.68334 13.0585 2.59168C13.0585 2.25001 12.9168 1.93334 12.6918 1.70834L11.8085 0.833344L6.32516 6.31668C6.01683 6.62501 5.8335 7.04168 5.8335 7.50001V15.8333C5.8335 16.2754 6.00909 16.6993 6.32165 17.0119C6.63421 17.3244 7.05813 17.5 7.50016 17.5H15.0002C15.6918 17.5 16.2835 17.0833 16.5335 16.4833L19.0502 10.6083C19.1252 10.4167 19.1668 10.2167 19.1668 10V8.33334ZM0.833496 17.5H4.16683V7.50001H0.833496V17.5Z" fill="#1E272E"/>
</svg>
