<svg width="16" height="16" viewBox="0 0 16 16" fill="none" xmlns="http://www.w3.org/2000/svg">
<path d="M11.4667 13.0511V10.9528C11.4667 10.2322 11.168 9.5461 10.6469 9.0711L9.47148 7.99998L10.6469 6.92886C11.168 6.45386 11.4667 5.76774 11.4667 5.04719V2.94886C11.7765 2.83386 12 2.52831 12 2.16665C12 1.70719 11.6411 1.33331 11.2 1.33331H4.8C4.35893 1.33331 4 1.70719 4 2.16665C4 2.52831 4.22348 2.83386 4.53333 2.94886V5.04719C4.53333 5.76774 4.832 6.45386 5.35305 6.92886L6.52853 7.99998L5.35305 9.0711C4.83197 9.5461 4.53333 10.2322 4.53333 10.9528V13.0511C4.22348 13.1661 4 13.4716 4 13.8333C4 14.2928 4.35893 14.6666 4.8 14.6666H11.2C11.6411 14.6666 12 14.2928 12 13.8333C12 13.4716 11.7765 13.1661 11.4667 13.0511ZM10.9333 13H5.06668V10.9528C5.06668 10.3922 5.2992 9.85889 5.704 9.48943L7.1088 8.20889C7.16693 8.1561 7.2 8.08001 7.2 8.00001C7.2 7.92001 7.16693 7.84389 7.1088 7.79113L5.704 6.51058C5.2992 6.14113 5.06668 5.60779 5.06668 5.04725V2.99998H10.9334V5.04719C10.9334 5.60774 10.7008 6.14107 10.296 6.51053L8.89122 7.79107C8.83308 7.84386 8.8 7.91998 8.8 7.99998C8.8 8.07998 8.83308 8.1561 8.8912 8.20886L10.296 9.48941C10.7013 9.85886 10.9333 10.3922 10.9333 10.9527V13Z" fill="#1E272E"/>
<path d="M10.3419 11.9933L8.20853 9.21551C8.10721 9.08384 7.89333 9.08384 7.79201 9.21551L5.65869 11.9933C5.59469 12.0766 5.58241 12.1911 5.62669 12.2872C5.67096 12.3833 5.76429 12.4444 5.86669 12.4444H10.1334C10.2358 12.4444 10.3291 12.3833 10.3739 12.2872C10.4181 12.1911 10.4059 12.0766 10.3419 11.9933Z" fill="#1E272E"/>
<path d="M9.31312 5.94944C9.27204 5.84556 9.17444 5.77777 9.06672 5.77777H6.93339C6.82567 5.77777 6.72807 5.84556 6.68699 5.94944C6.64539 6.05332 6.66832 6.17222 6.74459 6.25222L7.81127 7.36334C7.86354 7.41722 7.93179 7.44446 8.00007 7.44446C8.06834 7.44446 8.13659 7.41725 8.18887 7.36334L9.25554 6.25222C9.33177 6.17277 9.35472 6.05332 9.31312 5.94944Z" fill="#1E272E"/>
</svg>
