<svg width="19" height="18" viewBox="0 0 19 18" fill="none" xmlns="http://www.w3.org/2000/svg">
<path d="M16.8125 4.47012C16.2747 4.70216 15.6893 4.86915 15.0864 4.93419C15.7124 4.5623 16.1811 3.97477 16.4047 3.28184C15.8173 3.63128 15.1738 3.87631 14.5028 4.00606C14.2223 3.70623 13.8831 3.46736 13.5063 3.30436C13.1295 3.14135 12.7231 3.05769 12.3125 3.0586C10.6514 3.0586 9.31548 4.40509 9.31548 6.05743C9.31548 6.28946 9.3436 6.52149 9.38931 6.74473C6.902 6.61466 4.68364 5.42637 3.20884 3.60704C2.94011 4.06603 2.79929 4.58865 2.80103 5.12052C2.80103 6.16114 3.33013 7.07872 4.13696 7.61837C3.66148 7.59964 3.19714 7.46895 2.78169 7.23692V7.27384C2.78169 8.73106 3.81177 9.93868 5.18462 10.2164C4.92685 10.2834 4.66168 10.3176 4.39536 10.3184C4.20024 10.3184 4.01567 10.299 3.82935 10.2727C4.20903 11.4609 5.3147 12.324 6.6313 12.3522C5.60122 13.159 4.31099 13.6336 2.91001 13.6336C2.65864 13.6336 2.42661 13.6248 2.18579 13.5967C3.5147 14.4492 5.09145 14.9414 6.7895 14.9414C12.302 14.9414 15.3184 10.3746 15.3184 6.41075C15.3184 6.28067 15.3184 6.15059 15.3096 6.02052C15.8932 5.59337 16.4047 5.06427 16.8125 4.47012Z" fill="#1DA1F2"/>
</svg>
